<?xml version="1.0" encoding="utf-8"?><svg id="showers" image-rendering="auto" baseProfile="basic" version="1.1" preserveAspectRatio="xMidYMid slice" x="0px" y="0px" width="1920" height="1080" xmlns="http://www.w3.org/2000/svg" viewBox="0 0 1920 1080" xmlns:xlink="http://www.w3.org/1999/xlink"><defs><filter id="filter" filterUnits="objectBoundingBox" width="100%" height="100%" x="0%" y="0%"><feColorMatrix type="matrix" in="SourceGraphic" values="1 0 0 0 1 0 1 0 0 1 0 0 1 0 1 0 0 0 9999999999999.99 0" result="colorTrans"/></filter><g id="Sky" overflow="visible"><path fill="#5B5F66" stroke="none" d="M1920 1080L1920 0 0 0 0 1080 1920 1080Z"/></g><g id="Rain-Sheetd500" overflow="visible"><use xlink:href="#Rain-Drop-Loopd500" transform="translate(175.75 25.45)"/><use xlink:href="#Rain-Drop-Loopd500" transform="translate(274.75 80)"/><use xlink:href="#Rain-Drop-Loopd500" transform="translate(275.15 -34.7)"/><use xlink:href="#Rain-Drop-Loopd500" transform="translate(371.15 21.3)"/><use xlink:href="#Rain-Drop-Loopd500" transform="translate(454.65 66.75)"/><use xlink:href="#Rain-Drop-Loopd500" transform="translate(492.35 9.55)"/><use xlink:href="#Rain-Drop-Loopd500" transform="translate(563.15 66.3)"/><use xlink:href="#Rain-Drop-Loopd500" transform="translate(607.75 32)"/><use xlink:href="#Rain-Drop-Loopd500" transform="translate(626.75 0)"/><use xlink:href="#Rain-Drop-Loopd500" transform="translate(697.65 38.75)"/><use xlink:href="#Rain-Drop-Loopd500" transform="translate(766.65 67)"/><use xlink:href="#Rain-Drop-Loopd500" transform="translate(780.35 9.55)"/><use xlink:href="#Rain-Drop-Loopd500" transform="translate(863.75 86)"/><use xlink:href="#Rain-Drop-Loopd500" transform="translate(898.75 25)"/><use xlink:href="#Rain-Drop-Loopd500" transform="translate(1199.65 38.75)"/><use xlink:href="#Rain-Drop-Loopd500" transform="translate(991.15 .3)"/><use xlink:href="#Rain-Drop-Loopd500" transform="translate(1074.75 32)"/><use xlink:href="#Rain-Drop-Loopd500" transform="translate(1155.15 80.3)"/><use xlink:href="#Rain-Drop-Loopd500" transform="translate(972.15 54.75)"/><use xlink:href="#Rain-Drop-Loopd500" transform="translate(1260.35 38.55)"/><use xlink:href="#Rain-Drop-Loopd500" transform="translate(1343.75 80)"/><use xlink:href="#Rain-Drop-Loopd500" transform="translate(1407.75 112)"/><use xlink:href="#Rain-Drop-Loopd500" transform="translate(1452.35 70.55)"/><use xlink:href="#Rain-Drop-Loopd500" transform="translate(1500.35 38.55)"/><use xlink:href="#Rain-Drop-Loopd500" transform="translate(1564.35 85.55)"/><use xlink:href="#Rain-Drop-Loopd500" transform="translate(1625.35 102.55)"/><use xlink:href="#Rain-Drop-Loopd500" transform="translate(1679.65 70.55)"/><use xlink:href="#Rain-Drop-Loopd500" transform="translate(1759.75 112)"/><use xlink:href="#Rain-Drop-Loopd500" transform="translate(1820.35 132.55)"/><use xlink:href="#Rain-Drop-Loopd500" transform="translate(2060.35 85.55)"/><use xlink:href="#Rain-Drop-Loopd500" transform="translate(1886.65 102)"/><use xlink:href="#Rain-Drop-Loopd500" transform="translate(1935.75 112)"/><use xlink:href="#Rain-Drop-Loopd500" transform="translate(1977.35 54.55)"/><use xlink:href="#Rain-Drop-Loopd500" transform="translate(1820.35 132.55)"/><use xlink:href="#Rain-Drop-Loopd500" transform="translate(2092.35 54.55)"/><use xlink:href="#Rain-Drop-Loopd500" transform="translate(127.15 48.3)"/><use xlink:href="#Rain-Drop-Loopd500" transform="translate(47.15 -16.7)"/><use xlink:href="#Rain-Drop-Loopd500" transform="translate(-.25 48)"/><use xlink:href="#Rain-Drop-Loopd500" transform="translate(-70.85 21.75)"/><use xlink:href="#Rain-Drop-Loopd500" transform="translate(-102.85 85.75)"/><use xlink:href="#Rain-Drop-Loopd500" transform="translate(-173.85 28.75)"/><use xlink:href="#Rain-Drop-Loopd500" transform="translate(-230.85 69.75)"/><use xlink:href="#Rain-Drop-Loopd500" transform="translate(-326.85 5.75)"/><use xlink:href="#Rain-Drop-Loopd500" transform="translate(-371.35 46.75)"/></g><g id="Rain-Drop-Loopd500" overflow="visible"><g id="Rain-Drop" transform="matrix(.866 -.497 .497 .866 .25 4)"><animateTransform attributeName="transform" additive="replace" type="translate" repeatCount="indefinite" dur="20.833s" keyTimes="0;.018;.01999;.02;.038;.03999;.04;.058;.05999;.06;.078;.07999;.08;.098;.09999;.1;.118;.11999;.12;.138;.13999;.14;.158;.15999;.16;.178;.17999;.18;.198;.19999;.2;.218;.21999;.22;.238;.23999;.24;.258;.25999;.26;.278;.27999;.28;.298;.29999;.3;.318;.31999;.32;.338;.33999;.34;.358;.35999;.36;.378;.37999;.38;.398;.39999;.4;.418;.41999;.42;.438;.43999;.44;.458;.45999;.46;.478;.47999;.48;.498;.49999;.5;.518;.51999;.52;.538;.53999;.54;.558;.55999;.56;.578;.57999;.58;.598;.59999;.6;.618;.61999;.62;.638;.63999;.64;.658;.65999;.66;.678;.67999;.68;.698;.69999;.7;.718;.71999;.72;.738;.73999;.74;.758;.75999;.76;.778;.77999;.78;.798;.79999;.8;.818;.81999;.82;.838;.83999;.84;.858;.85999;.86;.878;.87999;.88;.898;.89999;.9;.918;.91999;.92;.938;.93999;.94;.958;.95999;.96;.978;.97999;.98;.998;1" values="35.573,57.559;445.117,743.059;445.117,743.059;35.573,57.559;445.117,743.059;445.117,743.059;35.573,57.559;445.117,743.059;445.117,743.059;35.573,57.559;445.117,743.059;445.117,743.059;35.573,57.559;445.117,743.059;445.117,743.059;35.573,57.559;445.117,743.059;445.117,743.059;35.573,57.559;445.117,743.059;445.117,743.059;35.573,57.559;445.117,743.059;445.117,743.059;35.573,57.559;445.117,743.059;445.117,743.059;35.573,57.559;445.117,743.059;445.117,743.059;35.573,57.559;445.117,743.059;445.117,743.059;35.573,57.559;445.117,743.059;445.117,743.059;35.573,57.559;445.117,743.059;445.117,743.059;35.573,57.559;445.117,743.059;445.117,743.059;35.573,57.559;445.117,743.059;445.117,743.059;35.573,57.559;445.117,743.059;445.117,743.059;35.573,57.559;445.117,743.059;445.117,743.059;35.573,57.559;445.117,743.059;445.117,743.059;35.573,57.559;445.117,743.059;445.117,743.059;35.573,57.559;445.117,743.059;445.117,743.059;35.573,57.559;445.117,743.059;445.117,743.059;35.573,57.559;445.117,743.059;445.117,743.059;35.573,57.559;445.117,743.059;445.117,743.059;35.573,57.559;445.117,743.059;445.117,743.059;35.573,57.559;445.117,743.059;445.117,743.059;35.573,57.559;445.117,743.059;445.117,743.059;35.573,57.559;445.117,743.059;445.117,743.059;35.573,57.559;445.117,743.059;445.117,743.059;35.573,57.559;445.117,743.059;445.117,743.059;35.573,57.559;445.117,743.059;445.117,743.059;35.573,57.559;445.117,743.059;445.117,743.059;35.573,57.559;445.117,743.059;445.117,743.059;35.573,57.559;445.117,743.059;445.117,743.059;35.573,57.559;445.117,743.059;445.117,743.059;35.573,57.559;445.117,743.059;445.117,743.059;35.573,57.559;445.117,743.059;445.117,743.059;35.573,57.559;445.117,743.059;445.117,743.059;35.573,57.559;445.117,743.059;445.117,743.059;35.573,57.559;445.117,743.059;445.117,743.059;35.573,57.559;445.117,743.059;445.117,743.059;35.573,57.559;445.117,743.059;445.117,743.059;35.573,57.559;445.117,743.059;445.117,743.059;35.573,57.559;445.117,743.059;445.117,743.059;35.573,57.559;445.117,743.059;445.117,743.059;35.573,57.559;445.117,743.059;445.117,743.059;35.573,57.559;445.117,743.059;445.117,743.059;35.573,57.559;445.117,743.059;445.117,743.059;35.573,57.559;445.117,743.059;445.117,743.059;35.573,57.559;445.117,743.059;445.117,743.059;35.573,57.559;445.117,743.059;445.117,743.059"/><animateTransform attributeName="transform" additive="sum" type="rotate" repeatCount="indefinite" dur="20.833s" keyTimes="0;.018;.01999;.02;.038;.03999;.04;.058;.05999;.06;.078;.07999;.08;.098;.09999;.1;.118;.11999;.12;.138;.13999;.14;.158;.15999;.16;.178;.17999;.18;.198;.19999;.2;.218;.21999;.22;.238;.23999;.24;.258;.25999;.26;.278;.27999;.28;.298;.29999;.3;.318;.31999;.32;.338;.33999;.34;.358;.35999;.36;.378;.37999;.38;.398;.39999;.4;.418;.41999;.42;.438;.43999;.44;.458;.45999;.46;.478;.47999;.48;.498;.49999;.5;.518;.51999;.52;.538;.53999;.54;.558;.55999;.56;.578;.57999;.58;.598;.59999;.6;.618;.61999;.62;.638;.63999;.64;.658;.65999;.66;.678;.67999;.68;.698;.69999;.7;.718;.71999;.72;.738;.73999;.74;.758;.75999;.76;.778;.77999;.78;.798;.79999;.8;.818;.81999;.82;.838;.83999;.84;.858;.85999;.86;.878;.87999;.88;.898;.89999;.9;.918;.91999;.92;.938;.93999;.94;.958;.95999;.96;.978;.97999;.98;.998;1" values="-29.857,0,0;-30,0,0;-30,0,0;-29.857,0,0;-30,0,0;-30,0,0;-29.857,0,0;-30,0,0;-30,0,0;-29.857,0,0;-30,0,0;-30,0,0;-29.857,0,0;-30,0,0;-30,0,0;-29.857,0,0;-30,0,0;-30,0,0;-29.857,0,0;-30,0,0;-30,0,0;-29.857,0,0;-30,0,0;-30,0,0;-29.857,0,0;-30,0,0;-30,0,0;-29.857,0,0;-30,0,0;-30,0,0;-29.857,0,0;-30,0,0;-30,0,0;-29.857,0,0;-30,0,0;-30,0,0;-29.857,0,0;-30,0,0;-30,0,0;-29.857,0,0;-30,0,0;-30,0,0;-29.857,0,0;-30,0,0;-30,0,0;-29.857,0,0;-30,0,0;-30,0,0;-29.857,0,0;-30,0,0;-30,0,0;-29.857,0,0;-30,0,0;-30,0,0;-29.857,0,0;-30,0,0;-30,0,0;-29.857,0,0;-30,0,0;-30,0,0;-29.857,0,0;-30,0,0;-30,0,0;-29.857,0,0;-30,0,0;-30,0,0;-29.857,0,0;-30,0,0;-30,0,0;-29.857,0,0;-30,0,0;-30,0,0;-29.857,0,0;-30,0,0;-30,0,0;-29.857,0,0;-30,0,0;-30,0,0;-29.857,0,0;-30,0,0;-30,0,0;-29.857,0,0;-30,0,0;-30,0,0;-29.857,0,0;-30,0,0;-30,0,0;-29.857,0,0;-30,0,0;-30,0,0;-29.857,0,0;-30,0,0;-30,0,0;-29.857,0,0;-30,0,0;-30,0,0;-29.857,0,0;-30,0,0;-30,0,0;-29.857,0,0;-30,0,0;-30,0,0;-29.857,0,0;-30,0,0;-30,0,0;-29.857,0,0;-30,0,0;-30,0,0;-29.857,0,0;-30,0,0;-30,0,0;-29.857,0,0;-30,0,0;-30,0,0;-29.857,0,0;-30,0,0;-30,0,0;-29.857,0,0;-30,0,0;-30,0,0;-29.857,0,0;-30,0,0;-30,0,0;-29.857,0,0;-30,0,0;-30,0,0;-29.857,0,0;-30,0,0;-30,0,0;-29.857,0,0;-30,0,0;-30,0,0;-29.857,0,0;-30,0,0;-30,0,0;-29.857,0,0;-30,0,0;-30,0,0;-29.857,0,0;-30,0,0;-30,0,0;-29.857,0,0;-30,0,0;-30,0,0;-29.857,0,0;-30,0,0;-30,0,0;-29.857,0,0;-30,0,0;-30,0,0"/><animateTransform attributeName="transform" additive="sum" type="scale" repeatCount="indefinite" dur="20.833s" keyTimes="0;.018;.01999;.02;.038;.03999;.04;.058;.05999;.06;.078;.07999;.08;.098;.09999;.1;.118;.11999;.12;.138;.13999;.14;.158;.15999;.16;.178;.17999;.18;.198;.19999;.2;.218;.21999;.22;.238;.23999;.24;.258;.25999;.26;.278;.27999;.28;.298;.29999;.3;.318;.31999;.32;.338;.33999;.34;.358;.35999;.36;.378;.37999;.38;.398;.39999;.4;.418;.41999;.42;.438;.43999;.44;.458;.45999;.46;.478;.47999;.48;.498;.49999;.5;.518;.51999;.52;.538;.53999;.54;.558;.55999;.56;.578;.57999;.58;.598;.59999;.6;.618;.61999;.62;.638;.63999;.64;.658;.65999;.66;.678;.67999;.68;.698;.69999;.7;.718;.71999;.72;.738;.73999;.74;.758;.75999;.76;.778;.77999;.78;.798;.79999;.8;.818;.81999;.82;.838;.83999;.84;.858;.85999;.86;.878;.87999;.88;.898;.89999;.9;.918;.91999;.92;.938;.93999;.94;.958;.95999;.96;.978;.97999;.98;.998;1" values=".997,.997;1,.999;1,.999;.997,.997;1,.999;1,.999;.997,.997;1,.999;1,.999;.997,.997;1,.999;1,.999;.997,.997;1,.999;1,.999;.997,.997;1,.999;1,.999;.997,.997;1,.999;1,.999;.997,.997;1,.999;1,.999;.997,.997;1,.999;1,.999;.997,.997;1,.999;1,.999;.997,.997;1,.999;1,.999;.997,.997;1,.999;1,.999;.997,.997;1,.999;1,.999;.997,.997;1,.999;1,.999;.997,.997;1,.999;1,.999;.997,.997;1,.999;1,.999;.997,.997;1,.999;1,.999;.997,.997;1,.999;1,.999;.997,.997;1,.999;1,.999;.997,.997;1,.999;1,.999;.997,.997;1,.999;1,.999;.997,.997;1,.999;1,.999;.997,.997;1,.999;1,.999;.997,.997;1,.999;1,.999;.997,.997;1,.999;1,.999;.997,.997;1,.999;1,.999;.997,.997;1,.999;1,.999;.997,.997;1,.999;1,.999;.997,.997;1,.999;1,.999;.997,.997;1,.999;1,.999;.997,.997;1,.999;1,.999;.997,.997;1,.999;1,.999;.997,.997;1,.999;1,.999;.997,.997;1,.999;1,.999;.997,.997;1,.999;1,.999;.997,.997;1,.999;1,.999;.997,.997;1,.999;1,.999;.997,.997;1,.999;1,.999;.997,.997;1,.999;1,.999;.997,.997;1,.999;1,.999;.997,.997;1,.999;1,.999;.997,.997;1,.999;1,.999;.997,.997;1,.999;1,.999;.997,.997;1,.999;1,.999;.997,.997;1,.999;1,.999;.997,.997;1,.999;1,.999;.997,.997;1,.999;1,.999;.997,.997;1,.999;1,.999;.997,.997;1,.999;1,.999;.997,.997;1,.999;1,.999"/><animateTransform attributeName="transform" additive="sum" type="translate" repeatCount="indefinite" dur="20.833s" keyTimes="0;.018;.01999;.02;.038;.03999;.04;.058;.05999;.06;.078;.07999;.08;.098;.09999;.1;.118;.11999;.12;.138;.13999;.14;.158;.15999;.16;.178;.17999;.18;.198;.19999;.2;.218;.21999;.22;.238;.23999;.24;.258;.25999;.26;.278;.27999;.28;.298;.29999;.3;.318;.31999;.32;.338;.33999;.34;.358;.35999;.36;.378;.37999;.38;.398;.39999;.4;.418;.41999;.42;.438;.43999;.44;.458;.45999;.46;.478;.47999;.48;.498;.49999;.5;.518;.51999;.52;.538;.53999;.54;.558;.55999;.56;.578;.57999;.58;.598;.59999;.6;.618;.61999;.62;.638;.63999;.64;.658;.65999;.66;.678;.67999;.68;.698;.69999;.7;.718;.71999;.72;.738;.73999;.74;.758;.75999;.76;.778;.77999;.78;.798;.79999;.8;.818;.81999;.82;.838;.83999;.84;.858;.85999;.86;.878;.87999;.88;.898;.89999;.9;.918;.91999;.92;.938;.93999;.94;.958;.95999;.96;.978;.97999;.98;.998;1" values="-4,-64.15;-4.1,-64.2;-4.1,-64.2;-4,-64.15;-4.1,-64.2;-4.1,-64.2;-4,-64.15;-4.1,-64.2;-4.1,-64.2;-4,-64.15;-4.1,-64.2;-4.1,-64.2;-4,-64.15;-4.1,-64.2;-4.1,-64.2;-4,-64.15;-4.1,-64.2;-4.1,-64.2;-4,-64.15;-4.1,-64.2;-4.1,-64.2;-4,-64.15;-4.1,-64.2;-4.1,-64.2;-4,-64.15;-4.1,-64.2;-4.1,-64.2;-4,-64.15;-4.1,-64.2;-4.1,-64.2;-4,-64.15;-4.1,-64.2;-4.1,-64.2;-4,-64.15;-4.1,-64.2;-4.1,-64.2;-4,-64.15;-4.1,-64.2;-4.1,-64.2;-4,-64.15;-4.1,-64.2;-4.1,-64.2;-4,-64.15;-4.1,-64.2;-4.1,-64.2;-4,-64.15;-4.1,-64.2;-4.1,-64.2;-4,-64.15;-4.1,-64.2;-4.1,-64.2;-4,-64.15;-4.1,-64.2;-4.1,-64.2;-4,-64.15;-4.1,-64.2;-4.1,-64.2;-4,-64.15;-4.1,-64.2;-4.1,-64.2;-4,-64.15;-4.1,-64.2;-4.1,-64.2;-4,-64.15;-4.1,-64.2;-4.1,-64.2;-4,-64.15;-4.1,-64.2;-4.1,-64.2;-4,-64.15;-4.1,-64.2;-4.1,-64.2;-4,-64.15;-4.1,-64.2;-4.1,-64.2;-4,-64.15;-4.1,-64.2;-4.1,-64.2;-4,-64.15;-4.1,-64.2;-4.1,-64.2;-4,-64.15;-4.1,-64.2;-4.1,-64.2;-4,-64.15;-4.1,-64.2;-4.1,-64.2;-4,-64.15;-4.1,-64.2;-4.1,-64.2;-4,-64.15;-4.1,-64.2;-4.1,-64.2;-4,-64.15;-4.1,-64.2;-4.1,-64.2;-4,-64.15;-4.1,-64.2;-4.1,-64.2;-4,-64.15;-4.1,-64.2;-4.1,-64.2;-4,-64.15;-4.1,-64.2;-4.1,-64.2;-4,-64.15;-4.1,-64.2;-4.1,-64.2;-4,-64.15;-4.1,-64.2;-4.1,-64.2;-4,-64.15;-4.1,-64.2;-4.1,-64.2;-4,-64.15;-4.1,-64.2;-4.1,-64.2;-4,-64.15;-4.1,-64.2;-4.1,-64.2;-4,-64.15;-4.1,-64.2;-4.1,-64.2;-4,-64.15;-4.1,-64.2;-4.1,-64.2;-4,-64.15;-4.1,-64.2;-4.1,-64.2;-4,-64.15;-4.1,-64.2;-4.1,-64.2;-4,-64.15;-4.1,-64.2;-4.1,-64.2;-4,-64.15;-4.1,-64.2;-4.1,-64.2;-4,-64.15;-4.1,-64.2;-4.1,-64.2;-4,-64.15;-4.1,-64.2;-4.1,-64.2;-4,-64.15;-4.1,-64.2;-4.1,-64.2;-4,-64.15;-4.1,-64.2;-4.1,-64.2"/><path fill="#EDFAFE" stroke="none" d="M6.85 125.7Q8 123.3 8 120 8 117.8 4 0 0 117.8 0 120 0 123.3 1.2 125.7 2.35 128 4 128 5.65 128 6.85 125.7Z"/></g></g></defs><g id="Scene-1" overflow="visible"><use xlink:href="#Sky"/><g mask="url(#mask_)"><g id="Clouds-Blue" transform="translate(0 332.85)"><animateTransform attributeName="transform" additive="replace" type="translate" repeatCount="indefinite" dur="20.833s" keyTimes="0;.998;1" values="0,332.85;-160,332.85;-160,332.85"/><path fill="#8A8F99" stroke="none" d="M2080 193L2080 0 0 0 0 193Q.15 205.95 9.35 215.15 18.75 224.55 32 224.55 45.25 224.55 54.6 215.15 63.85 205.95 64 193 64.15 212.6 78.05 226.5 92.1 240.55 112 240.55 131.9 240.55 145.95 226.5 159.85 212.6 160 193 160.15 205.95 169.35 215.15 178.75 224.55 192 224.55 205.25 224.55 214.6 215.15 223.85 205.95 224 193 224.15 212.6 238.05 226.5 252.1 240.55 272 240.55 291.9 240.55 305.95 226.5 319.85 212.6 320 193 320.15 205.95 329.35 215.15 338.75 224.55 352 224.55 365.25 224.55 374.6 215.15 383.85 205.95 384 193 384.15 212.6 398.05 226.5 412.1 240.55 432 240.55 451.9 240.55 465.95 226.5 479.85 212.6 480 193 480.15 205.95 489.35 215.15 498.75 224.55 512 224.55 525.25 224.55 534.6 215.15 543.85 205.95 544 193 544.15 212.6 558.05 226.5 572.1 240.55 592 240.55 611.9 240.55 625.95 226.5 639.8 212.65 640 193.15 640.15 206.1 649.35 215.3 658.75 224.7 672 224.7 685.25 224.7 694.6 215.3 703.85 206.1 704 193.15 704.15 212.75 718.05 226.65 732.1 240.7 752 240.7 771.9 240.7 785.95 226.65 799.85 212.75 800 193.15 800.15 206.1 809.35 215.3 818.75 224.7 832 224.7 845.25 224.7 854.6 215.3 863.85 206.1 864 193.15 864.15 212.75 878.05 226.65 892.1 240.7 912 240.7 931.9 240.7 945.95 226.65 959.85 212.75 960 193.15 960.15 206.1 969.35 215.3 978.75 224.7 992 224.7 1005.25 224.7 1014.6 215.3 1023.85 206.1 1024 193.15 1024.15 212.75 1038.05 226.65 1052.1 240.7 1072 240.7 1091.9 240.7 1105.95 226.65 1119.85 212.75 1120 193.15 1120.15 206.1 1129.35 215.3 1138.75 224.7 1152 224.7 1165.25 224.7 1174.6 215.3 1183.85 206.1 1184 193.15 1184.15 212.75 1198.05 226.65 1212.1 240.7 1232 240.7 1251.9 240.7 1265.95 226.65 1279.85 212.75 1280 193.1 1280.2 206 1289.35 215.15 1298.75 224.55 1312 224.55 1325.25 224.55 1334.6 215.15 1343.85 205.95 1344 193 1344.15 212.6 1358.05 226.5 1372.1 240.55 1392 240.55 1411.9 240.55 1425.95 226.5 1439.85 212.6 1440 193 1440.15 205.95 1449.35 215.15 1458.75 224.55 1472 224.55 1485.25 224.55 1494.6 215.15 1503.85 205.95 1504 193 1504.15 212.6 1518.05 226.5 1532.1 240.55 1552 240.55 1571.9 240.55 1585.95 226.5 1599.85 212.6 1600 193 1600.15 205.95 1609.35 215.15 1618.75 224.55 1632 224.55 1645.25 224.55 1654.6 215.15 1663.85 205.95 1664 193 1664.15 212.6 1678.05 226.5 1692.1 240.55 1712 240.55 1731.9 240.55 1745.95 226.5 1759.85 212.6 1760 193 1760.15 205.95 1769.35 215.15 1778.75 224.55 1792 224.55 1805.25 224.55 1814.6 215.15 1823.85 205.95 1824 193 1824.15 212.6 1838.05 226.5 1852.1 240.55 1872 240.55 1891.9 240.55 1905.95 226.5 1919.85 212.6 1920 193 1920.35 205.6 1929.35 214.6 1938.75 224 1952 224 1965.25 224 1974.6 214.6 1983.65 205.6 1984 193 1984 212.9 1998.05 226.95 2012.1 241 2032 241 2051.9 241 2065.95 226.95 2080 212.9 2080 193Z"/></g></g><g mask="url(#mask_)"><g id="Clouds-Dark" transform="translate(-160.15 142.3)"><animateTransform attributeName="transform" additive="replace" type="translate" repeatCount="indefinite" dur="20.833s" keyTimes="0;.998;1" values="-160.15,142.3;.85,142.3;.85,142.3"/><path fill="#BAC0CC" stroke="none" d="M2080 193L2080 0 0 0 0 193Q.15 205.95 9.35 215.15 18.75 224.55 32 224.55 45.25 224.55 54.6 215.15 63.85 205.95 64 193 64.15 212.6 78.05 226.5 92.1 240.55 112 240.55 131.9 240.55 145.95 226.5 159.85 212.6 160 193 160.15 205.95 169.35 215.15 178.75 224.55 192 224.55 205.25 224.55 214.6 215.15 223.85 205.95 224 193 224.15 212.6 238.05 226.5 252.1 240.55 272 240.55 291.9 240.55 305.95 226.5 319.85 212.6 320 193 320.15 205.95 329.35 215.15 338.75 224.55 352 224.55 365.25 224.55 374.6 215.15 383.85 205.95 384 193 384.15 212.6 398.05 226.5 412.1 240.55 432 240.55 451.9 240.55 465.95 226.5 479.85 212.6 480 193 480.15 205.95 489.35 215.15 498.75 224.55 512 224.55 525.25 224.55 534.6 215.15 543.85 205.95 544 193 544.15 212.6 558.05 226.5 572.1 240.55 592 240.55 611.9 240.55 625.95 226.5 639.8 212.65 640 193.15 640.15 206.1 649.35 215.3 658.75 224.7 672 224.7 685.25 224.7 694.6 215.3 703.85 206.1 704 193.15 704.15 212.75 718.05 226.65 732.1 240.7 752 240.7 771.9 240.7 785.95 226.65 799.85 212.75 800 193.15 800.15 206.1 809.35 215.3 818.75 224.7 832 224.7 845.25 224.7 854.6 215.3 863.85 206.1 864 193.15 864.15 212.75 878.05 226.65 892.1 240.7 912 240.7 931.9 240.7 945.95 226.65 959.85 212.75 960 193.15 960.15 206.1 969.35 215.3 978.75 224.7 992 224.7 1005.25 224.7 1014.6 215.3 1023.85 206.1 1024 193.15 1024.15 212.75 1038.05 226.65 1052.1 240.7 1072 240.7 1091.9 240.7 1105.95 226.65 1119.85 212.75 1120 193.15 1120.15 206.1 1129.35 215.3 1138.75 224.7 1152 224.7 1165.25 224.7 1174.6 215.3 1183.85 206.1 1184 193.15 1184.15 212.75 1198.05 226.65 1212.1 240.7 1232 240.7 1251.9 240.7 1265.95 226.65 1279.85 212.75 1280 193.1 1280.2 206 1289.35 215.15 1298.75 224.55 1312 224.55 1325.25 224.55 1334.6 215.15 1343.85 205.95 1344 193 1344.15 212.6 1358.05 226.5 1372.1 240.55 1392 240.55 1411.9 240.55 1425.95 226.5 1439.85 212.6 1440 193 1440.15 205.95 1449.35 215.15 1458.75 224.55 1472 224.55 1485.25 224.55 1494.6 215.15 1503.85 205.95 1504 193 1504.15 212.6 1518.05 226.5 1532.1 240.55 1552 240.55 1571.9 240.55 1585.95 226.5 1599.85 212.6 1600 193 1600.15 205.95 1609.35 215.15 1618.75 224.55 1632 224.55 1645.25 224.55 1654.6 215.15 1663.85 205.95 1664 193 1664.15 212.6 1678.05 226.5 1692.1 240.55 1712 240.55 1731.9 240.55 1745.95 226.5 1759.85 212.6 1760 193 1760.15 205.95 1769.35 215.15 1778.75 224.55 1792 224.55 1805.25 224.55 1814.6 215.15 1823.85 205.95 1824 193 1824.15 212.6 1838.05 226.5 1852.1 240.55 1872 240.55 1891.9 240.55 1905.95 226.5 1919.85 212.6 1920 193 1920.35 205.6 1929.35 214.6 1938.75 224 1952 224 1965.25 224 1974.6 214.6 1983.65 205.6 1984 193 1984 212.9 1998.05 226.95 2012.1 241 2032 241 2051.9 241 2065.95 226.95 2080 212.9 2080 193Z"/></g></g><g mask="url(#mask_)"><g id="Clouds-White" transform="translate(0 -50)"><animateTransform attributeName="transform" additive="replace" type="translate" repeatCount="indefinite" dur="20.833s" keyTimes="0;.998;1" values="0,-50;-160,-49;-160,-49"/><path fill="#FFF" stroke="none" d="M2080 193L2080 0 0 0 0 193Q.15 205.95 9.35 215.15 18.75 224.55 32 224.55 45.25 224.55 54.6 215.15 63.85 205.95 64 193 64.15 212.6 78.05 226.5 92.1 240.55 112 240.55 131.9 240.55 145.95 226.5 159.85 212.6 160 193 160.15 205.95 169.35 215.15 178.75 224.55 192 224.55 205.25 224.55 214.6 215.15 223.85 205.95 224 193 224.15 212.6 238.05 226.5 252.1 240.55 272 240.55 291.9 240.55 305.95 226.5 319.85 212.6 320 193 320.15 205.95 329.35 215.15 338.75 224.55 352 224.55 365.25 224.55 374.6 215.15 383.85 205.95 384 193 384.15 212.6 398.05 226.5 412.1 240.55 432 240.55 451.9 240.55 465.95 226.5 479.85 212.6 480 193 480.15 205.95 489.35 215.15 498.75 224.55 512 224.55 525.25 224.55 534.6 215.15 543.85 205.95 544 193 544.15 212.6 558.05 226.5 572.1 240.55 592 240.55 611.9 240.55 625.95 226.5 639.8 212.65 640 193.15 640.15 206.1 649.35 215.3 658.75 224.7 672 224.7 685.25 224.7 694.6 215.3 703.85 206.1 704 193.15 704.15 212.75 718.05 226.65 732.1 240.7 752 240.7 771.9 240.7 785.95 226.65 799.85 212.75 800 193.15 800.15 206.1 809.35 215.3 818.75 224.7 832 224.7 845.25 224.7 854.6 215.3 863.85 206.1 864 193.15 864.15 212.75 878.05 226.65 892.1 240.7 912 240.7 931.9 240.7 945.95 226.65 959.85 212.75 960 193.15 960.15 206.1 969.35 215.3 978.75 224.7 992 224.7 1005.25 224.7 1014.6 215.3 1023.85 206.1 1024 193.15 1024.15 212.75 1038.05 226.65 1052.1 240.7 1072 240.7 1091.9 240.7 1105.95 226.65 1119.85 212.75 1120 193.15 1120.15 206.1 1129.35 215.3 1138.75 224.7 1152 224.7 1165.25 224.7 1174.6 215.3 1183.85 206.1 1184 193.15 1184.15 212.75 1198.05 226.65 1212.1 240.7 1232 240.7 1251.9 240.7 1265.95 226.65 1279.85 212.75 1280 193.1 1280.2 206 1289.35 215.15 1298.75 224.55 1312 224.55 1325.25 224.55 1334.6 215.15 1343.85 205.95 1344 193 1344.15 212.6 1358.05 226.5 1372.1 240.55 1392 240.55 1411.9 240.55 1425.95 226.5 1439.85 212.6 1440 193 1440.15 205.95 1449.35 215.15 1458.75 224.55 1472 224.55 1485.25 224.55 1494.6 215.15 1503.85 205.95 1504 193 1504.15 212.6 1518.05 226.5 1532.1 240.55 1552 240.55 1571.9 240.55 1585.95 226.5 1599.85 212.6 1600 193 1600.15 205.95 1609.35 215.15 1618.75 224.55 1632 224.55 1645.25 224.55 1654.6 215.15 1663.85 205.95 1664 193 1664.15 212.6 1678.05 226.5 1692.1 240.55 1712 240.55 1731.9 240.55 1745.95 226.5 1759.85 212.6 1760 193 1760.15 205.95 1769.35 215.15 1778.75 224.55 1792 224.55 1805.25 224.55 1814.6 215.15 1823.85 205.95 1824 193 1824.15 212.6 1838.05 226.5 1852.1 240.55 1872 240.55 1891.9 240.55 1905.95 226.5 1919.85 212.6 1920 193 1920.35 205.6 1929.35 214.6 1938.75 224 1952 224 1965.25 224 1974.6 214.6 1983.65 205.6 1984 193 1984 212.9 1998.05 226.95 2012.1 241 2032 241 2051.9 241 2065.95 226.95 2080 212.9 2080 193Z"/></g></g><g mask="url(#mask_)"><use xlink:href="#Rain-Sheetd500" transform="translate(-285.2 -192.4)"/><use xlink:href="#Rain-Sheetd500" transform="translate(-200.6 .3)"/><use xlink:href="#Rain-Sheetd500" transform="translate(-218.6 199.3)"/><use xlink:href="#Rain-Sheetd500" transform="translate(-106.25 361.95)"/><use xlink:href="#Rain-Sheetd500" transform="translate(-171.75 534)"/><use xlink:href="#Rain-Sheetd500" transform="translate(-59.4 696.65)"/><use xlink:href="#Rain-Sheetd500" transform="translate(-164.75 860)"/><use xlink:href="#Rain-Sheetd500" transform="translate(-52.4 1022.65)"/><use xlink:href="#Rain-Sheetd500" transform="translate(-461.85 -937.95)"/><use xlink:href="#Rain-Sheetd500" transform="translate(-377.25 -745.25)"/><use xlink:href="#Rain-Sheetd500" transform="translate(-395.25 -546.25)"/><use xlink:href="#Rain-Sheetd500" transform="translate(-282.9 -383.6)"/></g><mask id="mask_"><g filter="url(#filter)"><use xlink:href="#Sky"/></g></mask></g></svg>