<?xml version="1.0" encoding="utf-8"?><svg id="thunderstorm" image-rendering="auto" baseProfile="basic" version="1.1" preserveAspectRatio="xMidYMid slice" x="0px" y="0px" width="1920" height="1080" xmlns="http://www.w3.org/2000/svg" viewBox="0 0 1920 1080" xmlns:xlink="http://www.w3.org/1999/xlink"><defs><filter id="filter" filterUnits="objectBoundingBox" width="100%" height="100%" x="0%" y="0%"><feColorMatrix type="matrix" in="SourceGraphic" values="1 0 0 0 1 0 1 0 0 1 0 0 1 0 1 0 0 0 9999999999999.99 0" result="colorTrans"/></filter><g id="Sky" overflow="visible"><path fill="#5B5F66" stroke="none" d="M1920 1080L1920 0 0 0 0 1080 1920 1080Z"/></g><g id="Rain-Sheetd200" overflow="visible"><use xlink:href="#Rain-Drop-Loopd200" transform="translate(175.75 25.45)"/><use xlink:href="#Rain-Drop-Loopd200" transform="translate(274.75 80)"/><use xlink:href="#Rain-Drop-Loopd200" transform="translate(275.15 -34.7)"/><use xlink:href="#Rain-Drop-Loopd200" transform="translate(371.15 21.3)"/><use xlink:href="#Rain-Drop-Loopd200" transform="translate(454.65 66.75)"/><use xlink:href="#Rain-Drop-Loopd200" transform="translate(492.35 9.55)"/><use xlink:href="#Rain-Drop-Loopd200" transform="translate(563.15 66.3)"/><use xlink:href="#Rain-Drop-Loopd200" transform="translate(607.75 32)"/><use xlink:href="#Rain-Drop-Loopd200" transform="translate(626.75 0)"/><use xlink:href="#Rain-Drop-Loopd200" transform="translate(697.65 38.75)"/><use xlink:href="#Rain-Drop-Loopd200" transform="translate(766.65 67)"/><use xlink:href="#Rain-Drop-Loopd200" transform="translate(780.35 9.55)"/><use xlink:href="#Rain-Drop-Loopd200" transform="translate(863.75 86)"/><use xlink:href="#Rain-Drop-Loopd200" transform="translate(898.75 25)"/><use xlink:href="#Rain-Drop-Loopd200" transform="translate(1199.65 38.75)"/><use xlink:href="#Rain-Drop-Loopd200" transform="translate(991.15 .3)"/><use xlink:href="#Rain-Drop-Loopd200" transform="translate(1074.75 32)"/><use xlink:href="#Rain-Drop-Loopd200" transform="translate(1155.15 80.3)"/><use xlink:href="#Rain-Drop-Loopd200" transform="translate(972.15 54.75)"/><use xlink:href="#Rain-Drop-Loopd200" transform="translate(1260.35 38.55)"/><use xlink:href="#Rain-Drop-Loopd200" transform="translate(1343.75 80)"/><use xlink:href="#Rain-Drop-Loopd200" transform="translate(1407.75 112)"/><use xlink:href="#Rain-Drop-Loopd200" transform="translate(1452.35 70.55)"/><use xlink:href="#Rain-Drop-Loopd200" transform="translate(1500.35 38.55)"/><use xlink:href="#Rain-Drop-Loopd200" transform="translate(1564.35 85.55)"/><use xlink:href="#Rain-Drop-Loopd200" transform="translate(1625.35 102.55)"/><use xlink:href="#Rain-Drop-Loopd200" transform="translate(1679.65 70.55)"/><use xlink:href="#Rain-Drop-Loopd200" transform="translate(1759.75 112)"/><use xlink:href="#Rain-Drop-Loopd200" transform="translate(1820.35 132.55)"/><use xlink:href="#Rain-Drop-Loopd200" transform="translate(2060.35 85.55)"/><use xlink:href="#Rain-Drop-Loopd200" transform="translate(1886.65 102)"/><use xlink:href="#Rain-Drop-Loopd200" transform="translate(1935.75 112)"/><use xlink:href="#Rain-Drop-Loopd200" transform="translate(1977.35 54.55)"/><use xlink:href="#Rain-Drop-Loopd200" transform="translate(1820.35 132.55)"/><use xlink:href="#Rain-Drop-Loopd200" transform="translate(2092.35 54.55)"/><use xlink:href="#Rain-Drop-Loopd200" transform="translate(127.15 48.3)"/><use xlink:href="#Rain-Drop-Loopd200" transform="translate(47.15 -16.7)"/><use xlink:href="#Rain-Drop-Loopd200" transform="translate(-.25 48)"/><use xlink:href="#Rain-Drop-Loopd200" transform="translate(-70.85 21.75)"/><use xlink:href="#Rain-Drop-Loopd200" transform="translate(-102.85 85.75)"/><use xlink:href="#Rain-Drop-Loopd200" transform="translate(-173.85 28.75)"/><use xlink:href="#Rain-Drop-Loopd200" transform="translate(-230.85 69.75)"/><use xlink:href="#Rain-Drop-Loopd200" transform="translate(-326.85 5.75)"/><use xlink:href="#Rain-Drop-Loopd200" transform="translate(-371.35 46.75)"/></g><g id="Rain-Drop-Loopd200" overflow="visible"><g id="Rain-Drop" transform="matrix(.866 -.497 .497 .866 .25 4)"><animateTransform attributeName="transform" additive="replace" type="translate" repeatCount="indefinite" dur="8.333s" keyTimes="0;.045;.04999;.05;.095;.09999;.1;.145;.14999;.15;.195;.19999;.2;.245;.24999;.25;.295;.29999;.3;.345;.34999;.35;.395;.39999;.4;.445;.44999;.45;.495;.49999;.5;.545;.54999;.55;.595;.59999;.6;.645;.64999;.65;.695;.69999;.7;.745;.74999;.75;.795;.79999;.8;.845;.84999;.85;.895;.89999;.9;.945;.94999;.95;.995;1" values="35.573,57.559;445.117,743.059;445.117,743.059;35.573,57.559;445.117,743.059;445.117,743.059;35.573,57.559;445.117,743.059;445.117,743.059;35.573,57.559;445.117,743.059;445.117,743.059;35.573,57.559;445.117,743.059;445.117,743.059;35.573,57.559;445.117,743.059;445.117,743.059;35.573,57.559;445.117,743.059;445.117,743.059;35.573,57.559;445.117,743.059;445.117,743.059;35.573,57.559;445.117,743.059;445.117,743.059;35.573,57.559;445.117,743.059;445.117,743.059;35.573,57.559;445.117,743.059;445.117,743.059;35.573,57.559;445.117,743.059;445.117,743.059;35.573,57.559;445.117,743.059;445.117,743.059;35.573,57.559;445.117,743.059;445.117,743.059;35.573,57.559;445.117,743.059;445.117,743.059;35.573,57.559;445.117,743.059;445.117,743.059;35.573,57.559;445.117,743.059;445.117,743.059;35.573,57.559;445.117,743.059;445.117,743.059;35.573,57.559;445.117,743.059;445.117,743.059;35.573,57.559;445.117,743.059;445.117,743.059"/><animateTransform attributeName="transform" additive="sum" type="rotate" repeatCount="indefinite" dur="8.333s" keyTimes="0;.045;.04999;.05;.095;.09999;.1;.145;.14999;.15;.195;.19999;.2;.245;.24999;.25;.295;.29999;.3;.345;.34999;.35;.395;.39999;.4;.445;.44999;.45;.495;.49999;.5;.545;.54999;.55;.595;.59999;.6;.645;.64999;.65;.695;.69999;.7;.745;.74999;.75;.795;.79999;.8;.845;.84999;.85;.895;.89999;.9;.945;.94999;.95;.995;1" values="-29.857,0,0;-30,0,0;-30,0,0;-29.857,0,0;-30,0,0;-30,0,0;-29.857,0,0;-30,0,0;-30,0,0;-29.857,0,0;-30,0,0;-30,0,0;-29.857,0,0;-30,0,0;-30,0,0;-29.857,0,0;-30,0,0;-30,0,0;-29.857,0,0;-30,0,0;-30,0,0;-29.857,0,0;-30,0,0;-30,0,0;-29.857,0,0;-30,0,0;-30,0,0;-29.857,0,0;-30,0,0;-30,0,0;-29.857,0,0;-30,0,0;-30,0,0;-29.857,0,0;-30,0,0;-30,0,0;-29.857,0,0;-30,0,0;-30,0,0;-29.857,0,0;-30,0,0;-30,0,0;-29.857,0,0;-30,0,0;-30,0,0;-29.857,0,0;-30,0,0;-30,0,0;-29.857,0,0;-30,0,0;-30,0,0;-29.857,0,0;-30,0,0;-30,0,0;-29.857,0,0;-30,0,0;-30,0,0;-29.857,0,0;-30,0,0;-30,0,0"/><animateTransform attributeName="transform" additive="sum" type="scale" repeatCount="indefinite" dur="8.333s" keyTimes="0;.045;.04999;.05;.095;.09999;.1;.145;.14999;.15;.195;.19999;.2;.245;.24999;.25;.295;.29999;.3;.345;.34999;.35;.395;.39999;.4;.445;.44999;.45;.495;.49999;.5;.545;.54999;.55;.595;.59999;.6;.645;.64999;.65;.695;.69999;.7;.745;.74999;.75;.795;.79999;.8;.845;.84999;.85;.895;.89999;.9;.945;.94999;.95;.995;1" values=".997,.997;1,.999;1,.999;.997,.997;1,.999;1,.999;.997,.997;1,.999;1,.999;.997,.997;1,.999;1,.999;.997,.997;1,.999;1,.999;.997,.997;1,.999;1,.999;.997,.997;1,.999;1,.999;.997,.997;1,.999;1,.999;.997,.997;1,.999;1,.999;.997,.997;1,.999;1,.999;.997,.997;1,.999;1,.999;.997,.997;1,.999;1,.999;.997,.997;1,.999;1,.999;.997,.997;1,.999;1,.999;.997,.997;1,.999;1,.999;.997,.997;1,.999;1,.999;.997,.997;1,.999;1,.999;.997,.997;1,.999;1,.999;.997,.997;1,.999;1,.999;.997,.997;1,.999;1,.999"/><animateTransform attributeName="transform" additive="sum" type="translate" repeatCount="indefinite" dur="8.333s" keyTimes="0;.045;.04999;.05;.095;.09999;.1;.145;.14999;.15;.195;.19999;.2;.245;.24999;.25;.295;.29999;.3;.345;.34999;.35;.395;.39999;.4;.445;.44999;.45;.495;.49999;.5;.545;.54999;.55;.595;.59999;.6;.645;.64999;.65;.695;.69999;.7;.745;.74999;.75;.795;.79999;.8;.845;.84999;.85;.895;.89999;.9;.945;.94999;.95;.995;1" values="-4,-64.15;-4.1,-64.2;-4.1,-64.2;-4,-64.15;-4.1,-64.2;-4.1,-64.2;-4,-64.15;-4.1,-64.2;-4.1,-64.2;-4,-64.15;-4.1,-64.2;-4.1,-64.2;-4,-64.15;-4.1,-64.2;-4.1,-64.2;-4,-64.15;-4.1,-64.2;-4.1,-64.2;-4,-64.15;-4.1,-64.2;-4.1,-64.2;-4,-64.15;-4.1,-64.2;-4.1,-64.2;-4,-64.15;-4.1,-64.2;-4.1,-64.2;-4,-64.15;-4.1,-64.2;-4.1,-64.2;-4,-64.15;-4.1,-64.2;-4.1,-64.2;-4,-64.15;-4.1,-64.2;-4.1,-64.2;-4,-64.15;-4.1,-64.2;-4.1,-64.2;-4,-64.15;-4.1,-64.2;-4.1,-64.2;-4,-64.15;-4.1,-64.2;-4.1,-64.2;-4,-64.15;-4.1,-64.2;-4.1,-64.2;-4,-64.15;-4.1,-64.2;-4.1,-64.2;-4,-64.15;-4.1,-64.2;-4.1,-64.2;-4,-64.15;-4.1,-64.2;-4.1,-64.2;-4,-64.15;-4.1,-64.2;-4.1,-64.2"/><path fill="#EDFAFE" stroke="none" d="M6.85 125.7Q8 123.3 8 120 8 117.8 4 0 0 117.8 0 120 0 123.3 1.2 125.7 2.35 128 4 128 5.65 128 6.85 125.7Z"/></g></g><radialGradient id="Gradient_1" gradientUnits="userSpaceOnUse" cx="0" cy="0" r="95.987" fx="0" fy="0" gradientTransform="matrix(0 -1 1.900 0 1472 560)" spreadMethod="pad"><stop offset="0%" stop-color="#A1A5A3"/><stop offset="100%" stop-color="#8A8F99"/></radialGradient><radialGradient id="Gradient_2" gradientUnits="userSpaceOnUse" cx="0" cy="0" r="95.987" fx="0" fy="0" gradientTransform="matrix(0 -1 1.900 0 1472 560)" spreadMethod="pad"><stop offset="0%" stop-color="#B9BCAD"/><stop offset="100%" stop-color="#8A8F99"/></radialGradient><radialGradient id="Gradient_3" gradientUnits="userSpaceOnUse" cx="0" cy="0" r="95.987" fx="0" fy="0" gradientTransform="matrix(0 -1 1.900 0 1472 560)" spreadMethod="pad"><stop offset="0%" stop-color="#D0D2B8"/><stop offset="100%" stop-color="#8A8F99"/></radialGradient><radialGradient id="Gradient_4" gradientUnits="userSpaceOnUse" cx="0" cy="0" r="95.987" fx="0" fy="0" gradientTransform="matrix(0 -1 1.900 0 1472 560)" spreadMethod="pad"><stop offset="0%" stop-color="#E8E9C2"/><stop offset="100%" stop-color="#8A8F99"/></radialGradient><radialGradient id="Gradient_5" gradientUnits="userSpaceOnUse" cx="0" cy="0" r="95.987" fx="0" fy="0" gradientTransform="matrix(0 -1 1.900 0 1472 560)" spreadMethod="pad"><stop offset="0%" stop-color="#FFC"/><stop offset="100%" stop-color="#8A8F99"/></radialGradient><radialGradient id="Gradient_6" gradientUnits="userSpaceOnUse" cx="0" cy="0" r="92.787" fx="0" fy="0" gradientTransform="matrix(0 -1 2.620 .000 480.05 368)" spreadMethod="pad"><stop offset="0%" stop-color="#C8CDCC"/><stop offset="100%" stop-color="#BAC0CC"/></radialGradient><radialGradient id="Gradient_7" gradientUnits="userSpaceOnUse" cx="0" cy="0" r="92.787" fx="0" fy="0" gradientTransform="matrix(0 -1 2.620 .000 480.05 368)" spreadMethod="pad"><stop offset="0%" stop-color="#D6D9CC"/><stop offset="100%" stop-color="#BAC0CC"/></radialGradient><radialGradient id="Gradient_8" gradientUnits="userSpaceOnUse" cx="0" cy="0" r="92.787" fx="0" fy="0" gradientTransform="matrix(0 -1 2.620 .000 480.05 368)" spreadMethod="pad"><stop offset="0%" stop-color="#E3E6CC"/><stop offset="100%" stop-color="#BAC0CC"/></radialGradient><radialGradient id="Gradient_9" gradientUnits="userSpaceOnUse" cx="0" cy="0" r="92.787" fx="0" fy="0" gradientTransform="matrix(0 -1 2.620 .000 480.05 368)" spreadMethod="pad"><stop offset="0%" stop-color="#F1F2CC"/><stop offset="100%" stop-color="#BAC0CC"/></radialGradient><radialGradient id="Gradient_10" gradientUnits="userSpaceOnUse" cx="0" cy="0" r="92.787" fx="0" fy="0" gradientTransform="matrix(0 -1 2.620 .000 480.05 368)" spreadMethod="pad"><stop offset="0%" stop-color="#FFC"/><stop offset="100%" stop-color="#BAC0CC"/></radialGradient><radialGradient id="Gradient_11" gradientUnits="userSpaceOnUse" cx="0" cy="0" r="216.987" fx="0" fy="0" gradientTransform="matrix(0 -1 1.811 0 992 160)" spreadMethod="pad"><stop offset="0%" stop-color="#FFFFF5"/><stop offset="100%" stop-color="#FFF"/></radialGradient><radialGradient id="Gradient_12" gradientUnits="userSpaceOnUse" cx="0" cy="0" r="216.987" fx="0" fy="0" gradientTransform="matrix(0 -1 1.811 0 992 160)" spreadMethod="pad"><stop offset="0%" stop-color="#FFFFEB"/><stop offset="100%" stop-color="#FFF"/></radialGradient><radialGradient id="Gradient_13" gradientUnits="userSpaceOnUse" cx="0" cy="0" r="216.987" fx="0" fy="0" gradientTransform="matrix(0 -1 1.811 0 992 160)" spreadMethod="pad"><stop offset="0%" stop-color="#FFFFE0"/><stop offset="100%" stop-color="#FFF"/></radialGradient><radialGradient id="Gradient_14" gradientUnits="userSpaceOnUse" cx="0" cy="0" r="216.987" fx="0" fy="0" gradientTransform="matrix(0 -1 1.811 0 992 160)" spreadMethod="pad"><stop offset="0%" stop-color="#FFFFD6"/><stop offset="100%" stop-color="#FFF"/></radialGradient><radialGradient id="Gradient_15" gradientUnits="userSpaceOnUse" cx="0" cy="0" r="216.987" fx="0" fy="0" gradientTransform="matrix(0 -1 1.811 0 992 160)" spreadMethod="pad"><stop offset="0%" stop-color="#FFC"/><stop offset="100%" stop-color="#FFF"/></radialGradient></defs><g id="Scene-1-copy" overflow="visible"><use xlink:href="#Sky"/><g mask="url(#mask_)" display="none"><g id="Lightning-4" transform="translate(1431.65 489.5)"><animate attributeName="opacity" repeatCount="indefinite" dur="8.333s" keyTimes="0;.33999;.365;1" values="1;1;0;0"/><path fill="#FFC" stroke="none" d="M8.3 0L0 5.55 93.4 145.6 65.4 166.55Q64.85 166.9 64.4 167.45L64.2 167.7Q64 167.95 63.85 168.25 63.8 168.3 63.8 168.35L14.15 242.75 78.95 339.9 26.15 242.75 66.35 182.5 79.8 229.75 151.65 271.25 151.15 270.75 88.5 223.75 73.9 172.7 106.95 147.9 8.3 0Z"/></g><animate attributeName="display" repeatCount="indefinite" dur="8.333s" keyTimes="0;.315;.37;1" values="none;inline;none;none"/></g><g mask="url(#mask_)"><g display="none" id="Layer24_0_FILL"><path fill="#8A8F99" stroke="none" d="M1952 556.85Q1965.25 556.85 1974.6 547.45 1983.65 538.45 1984 525.85 1984 545.75 1998.05 559.8 2012.1 573.85 2032 573.85 2051.9 573.85 2065.95 559.8 2080 545.75 2080 525.85L2080 332.85 0 332.85 0 525.85Q.15 538.8 9.35 548 18.75 557.4 32 557.4 45.25 557.4 54.6 548 63.85 538.8 64 525.85 64.15 545.45 78.05 559.35 92.1 573.4 112 573.4 131.9 573.4 145.95 559.35 159.85 545.45 160 525.85 160.15 538.8 169.35 548 178.75 557.4 192 557.4 205.25 557.4 214.6 548 223.85 538.8 224 525.85 224.15 545.45 238.05 559.35 252.1 573.4 272 573.4 291.9 573.4 305.95 559.35 319.85 545.45 320 525.85 320.15 538.8 329.35 548 338.75 557.4 352 557.4 365.25 557.4 374.6 548 383.85 538.8 384 525.85 384.15 545.45 398.05 559.35 412.1 573.4 432 573.4 451.9 573.4 465.95 559.35 479.85 545.45 480 525.85 480.15 538.8 489.35 548 498.75 557.4 512 557.4 525.25 557.4 534.6 548 543.85 538.8 544 525.85 544.15 545.45 558.05 559.35 572.1 573.4 592 573.4 611.9 573.4 625.95 559.35 639.8 545.5 640 526 640.15 538.95 649.35 548.15 658.75 557.55 672 557.55 685.25 557.55 694.6 548.15 703.85 538.95 704 526 704.15 545.6 718.05 559.5 732.1 573.55 752 573.55 771.9 573.55 785.95 559.5 799.85 545.6 800 526 800.15 538.95 809.35 548.15 818.75 557.55 832 557.55 845.25 557.55 854.6 548.15 863.85 538.95 864 526 864.15 545.6 878.05 559.5 892.1 573.55 912 573.55 931.9 573.55 945.95 559.5 959.85 545.6 960 526 960.15 538.95 969.35 548.15 978.75 557.55 992 557.55 1005.25 557.55 1014.6 548.15 1023.85 538.95 1024 526 1024.15 545.6 1038.05 559.5 1052.1 573.55 1072 573.55 1091.9 573.55 1105.95 559.5 1119.85 545.6 1120 526 1120.15 538.95 1129.35 548.15 1138.75 557.55 1152 557.55 1165.25 557.55 1174.6 548.15 1183.85 538.95 1184 526 1184.15 545.6 1198.05 559.5 1212.1 573.55 1232 573.55 1251.9 573.55 1265.95 559.5 1279.85 545.6 1280 525.95 1280.2 538.85 1289.35 548 1298.75 557.4 1312 557.4 1325.25 557.4 1334.6 548 1343.85 538.8 1344 525.85 1344.15 545.45 1358.05 559.35 1372.1 573.4 1392 573.4 1411.9 573.4 1425.95 559.35 1439.85 545.45 1440 525.85 1440.15 538.8 1449.35 548 1458.75 557.4 1472 557.4 1485.25 557.4 1494.6 548 1503.85 538.8 1504 525.85 1504.15 545.45 1518.05 559.35 1532.1 573.4 1552 573.4 1571.9 573.4 1585.95 559.35 1599.85 545.45 1600 525.85 1600.15 538.8 1609.35 548 1618.75 557.4 1632 557.4 1645.25 557.4 1654.6 548 1663.85 538.8 1664 525.85 1664.15 545.45 1678.05 559.35 1692.1 573.4 1712 573.4 1731.9 573.4 1745.95 559.35 1759.85 545.45 1760 525.85 1760.15 538.8 1769.35 548 1778.75 557.4 1792 557.4 1805.25 557.4 1814.6 548 1823.85 538.8 1824 525.85 1824.15 545.45 1838.05 559.35 1852.1 573.4 1872 573.4 1891.9 573.4 1905.95 559.35 1919.85 545.45 1920 525.85 1920.35 538.45 1929.35 547.45 1938.75 556.85 1952 556.85Z"/><animate attributeName="display" repeatCount="indefinite" dur="8.333s" keyTimes="0;.365;1" values="none;inline;inline"/></g><g display="none" id="Layer23_0_FILL"><path fill="url(#Gradient_1)" stroke="none" d="M1952 556.85Q1965.25 556.85 1974.6 547.45 1983.65 538.45 1984 525.85 1984 545.75 1998.05 559.8 2012.1 573.85 2032 573.85 2051.9 573.85 2065.95 559.8 2080 545.75 2080 525.85L2080 332.85 0 332.85 0 525.85Q.15 538.8 9.35 548 18.75 557.4 32 557.4 45.25 557.4 54.6 548 63.85 538.8 64 525.85 64.15 545.45 78.05 559.35 92.1 573.4 112 573.4 131.9 573.4 145.95 559.35 159.85 545.45 160 525.85 160.15 538.8 169.35 548 178.75 557.4 192 557.4 205.25 557.4 214.6 548 223.85 538.8 224 525.85 224.15 545.45 238.05 559.35 252.1 573.4 272 573.4 291.9 573.4 305.95 559.35 319.85 545.45 320 525.85 320.15 538.8 329.35 548 338.75 557.4 352 557.4 365.25 557.4 374.6 548 383.85 538.8 384 525.85 384.15 545.45 398.05 559.35 412.1 573.4 432 573.4 451.9 573.4 465.95 559.35 479.85 545.45 480 525.85 480.15 538.8 489.35 548 498.75 557.4 512 557.4 525.25 557.4 534.6 548 543.85 538.8 544 525.85 544.15 545.45 558.05 559.35 572.1 573.4 592 573.4 611.9 573.4 625.95 559.35 639.8 545.5 640 526 640.15 538.95 649.35 548.15 658.75 557.55 672 557.55 685.25 557.55 694.6 548.15 703.85 538.95 704 526 704.15 545.6 718.05 559.5 732.1 573.55 752 573.55 771.9 573.55 785.95 559.5 799.85 545.6 800 526 800.15 538.95 809.35 548.15 818.75 557.55 832 557.55 845.25 557.55 854.6 548.15 863.85 538.95 864 526 864.15 545.6 878.05 559.5 892.1 573.55 912 573.55 931.9 573.55 945.95 559.5 959.85 545.6 960 526 960.15 538.95 969.35 548.15 978.75 557.55 992 557.55 1005.25 557.55 1014.6 548.15 1023.85 538.95 1024 526 1024.15 545.6 1038.05 559.5 1052.1 573.55 1072 573.55 1091.9 573.55 1105.95 559.5 1119.85 545.6 1120 526 1120.15 538.95 1129.35 548.15 1138.75 557.55 1152 557.55 1165.25 557.55 1174.6 548.15 1183.85 538.95 1184 526 1184.15 545.6 1198.05 559.5 1212.1 573.55 1232 573.55 1251.9 573.55 1265.95 559.5 1279.85 545.6 1280 525.95 1280.2 538.85 1289.35 548 1298.75 557.4 1312 557.4 1325.25 557.4 1334.6 548 1343.85 538.8 1344 525.85 1344.15 545.45 1358.05 559.35 1372.1 573.4 1392 573.4 1411.9 573.4 1425.95 559.35 1439.85 545.45 1440 525.85 1440.15 538.8 1449.35 548 1458.75 557.4 1472 557.4 1485.25 557.4 1494.6 548 1503.85 538.8 1504 525.85 1504.15 545.45 1518.05 559.35 1532.1 573.4 1552 573.4 1571.9 573.4 1585.95 559.35 1599.85 545.45 1600 525.85 1600.15 538.8 1609.35 548 1618.75 557.4 1632 557.4 1645.25 557.4 1654.6 548 1663.85 538.8 1664 525.85 1664.15 545.45 1678.05 559.35 1692.1 573.4 1712 573.4 1731.9 573.4 1745.95 559.35 1759.85 545.45 1760 525.85 1760.15 538.8 1769.35 548 1778.75 557.4 1792 557.4 1805.25 557.4 1814.6 548 1823.85 538.8 1824 525.85 1824.15 545.45 1838.05 559.35 1852.1 573.4 1872 573.4 1891.9 573.4 1905.95 559.35 1919.85 545.45 1920 525.85 1920.35 538.45 1929.35 547.45 1938.75 556.85 1952 556.85Z"/><animate attributeName="display" repeatCount="indefinite" dur="8.333s" keyTimes="0;.36;.365;1" values="none;inline;none;none"/></g><g display="none" id="Layer22_0_FILL"><path fill="url(#Gradient_2)" stroke="none" d="M1952 556.85Q1965.25 556.85 1974.6 547.45 1983.65 538.45 1984 525.85 1984 545.75 1998.05 559.8 2012.1 573.85 2032 573.85 2051.9 573.85 2065.95 559.8 2080 545.75 2080 525.85L2080 332.85 0 332.85 0 525.85Q.15 538.8 9.35 548 18.75 557.4 32 557.4 45.25 557.4 54.6 548 63.85 538.8 64 525.85 64.15 545.45 78.05 559.35 92.1 573.4 112 573.4 131.9 573.4 145.95 559.35 159.85 545.45 160 525.85 160.15 538.8 169.35 548 178.75 557.4 192 557.4 205.25 557.4 214.6 548 223.85 538.8 224 525.85 224.15 545.45 238.05 559.35 252.1 573.4 272 573.4 291.9 573.4 305.95 559.35 319.85 545.45 320 525.85 320.15 538.8 329.35 548 338.75 557.4 352 557.4 365.25 557.4 374.6 548 383.85 538.8 384 525.85 384.15 545.45 398.05 559.35 412.1 573.4 432 573.4 451.9 573.4 465.95 559.35 479.85 545.45 480 525.85 480.15 538.8 489.35 548 498.75 557.4 512 557.4 525.25 557.4 534.6 548 543.85 538.8 544 525.85 544.15 545.45 558.05 559.35 572.1 573.4 592 573.4 611.9 573.4 625.95 559.35 639.8 545.5 640 526 640.15 538.95 649.35 548.15 658.75 557.55 672 557.55 685.25 557.55 694.6 548.15 703.85 538.95 704 526 704.15 545.6 718.05 559.5 732.1 573.55 752 573.55 771.9 573.55 785.95 559.5 799.85 545.6 800 526 800.15 538.95 809.35 548.15 818.75 557.55 832 557.55 845.25 557.55 854.6 548.15 863.85 538.95 864 526 864.15 545.6 878.05 559.5 892.1 573.55 912 573.55 931.9 573.55 945.95 559.5 959.85 545.6 960 526 960.15 538.95 969.35 548.15 978.75 557.55 992 557.55 1005.25 557.55 1014.6 548.15 1023.85 538.95 1024 526 1024.15 545.6 1038.05 559.5 1052.1 573.55 1072 573.55 1091.9 573.55 1105.95 559.5 1119.85 545.6 1120 526 1120.15 538.95 1129.35 548.15 1138.75 557.55 1152 557.55 1165.25 557.55 1174.6 548.15 1183.85 538.95 1184 526 1184.15 545.6 1198.05 559.5 1212.1 573.55 1232 573.55 1251.9 573.55 1265.95 559.5 1279.85 545.6 1280 525.95 1280.2 538.85 1289.35 548 1298.75 557.4 1312 557.4 1325.25 557.4 1334.6 548 1343.85 538.8 1344 525.85 1344.15 545.45 1358.05 559.35 1372.1 573.4 1392 573.4 1411.9 573.4 1425.95 559.35 1439.85 545.45 1440 525.85 1440.15 538.8 1449.35 548 1458.75 557.4 1472 557.4 1485.25 557.4 1494.6 548 1503.85 538.8 1504 525.85 1504.15 545.45 1518.05 559.35 1532.1 573.4 1552 573.4 1571.9 573.4 1585.95 559.35 1599.85 545.45 1600 525.85 1600.15 538.8 1609.35 548 1618.75 557.4 1632 557.4 1645.25 557.4 1654.6 548 1663.85 538.8 1664 525.85 1664.15 545.45 1678.05 559.35 1692.1 573.4 1712 573.4 1731.9 573.4 1745.95 559.35 1759.85 545.45 1760 525.85 1760.15 538.8 1769.35 548 1778.75 557.4 1792 557.4 1805.25 557.4 1814.6 548 1823.85 538.8 1824 525.85 1824.15 545.45 1838.05 559.35 1852.1 573.4 1872 573.4 1891.9 573.4 1905.95 559.35 1919.85 545.45 1920 525.85 1920.35 538.45 1929.35 547.45 1938.75 556.85 1952 556.85Z"/><animate attributeName="display" repeatCount="indefinite" dur="8.333s" keyTimes="0;.355;.36;1" values="none;inline;none;none"/></g><g display="none" id="Layer21_0_FILL"><path fill="url(#Gradient_3)" stroke="none" d="M1952 556.85Q1965.25 556.85 1974.6 547.45 1983.65 538.45 1984 525.85 1984 545.75 1998.05 559.8 2012.1 573.85 2032 573.85 2051.9 573.85 2065.95 559.8 2080 545.75 2080 525.85L2080 332.85 0 332.85 0 525.85Q.15 538.8 9.35 548 18.75 557.4 32 557.4 45.25 557.4 54.6 548 63.85 538.8 64 525.85 64.15 545.45 78.05 559.35 92.1 573.4 112 573.4 131.9 573.4 145.95 559.35 159.85 545.45 160 525.85 160.15 538.8 169.35 548 178.75 557.4 192 557.4 205.25 557.4 214.6 548 223.85 538.8 224 525.85 224.15 545.45 238.05 559.35 252.1 573.4 272 573.4 291.9 573.4 305.95 559.35 319.85 545.45 320 525.85 320.15 538.8 329.35 548 338.75 557.4 352 557.4 365.25 557.4 374.6 548 383.85 538.8 384 525.85 384.15 545.45 398.05 559.35 412.1 573.4 432 573.4 451.9 573.4 465.95 559.35 479.85 545.45 480 525.85 480.15 538.8 489.35 548 498.75 557.4 512 557.4 525.25 557.4 534.6 548 543.85 538.8 544 525.85 544.15 545.45 558.05 559.35 572.1 573.4 592 573.4 611.9 573.4 625.95 559.35 639.8 545.5 640 526 640.15 538.95 649.35 548.15 658.75 557.55 672 557.55 685.25 557.55 694.6 548.15 703.85 538.95 704 526 704.15 545.6 718.05 559.5 732.1 573.55 752 573.55 771.9 573.55 785.95 559.5 799.85 545.6 800 526 800.15 538.95 809.35 548.15 818.75 557.55 832 557.55 845.25 557.55 854.6 548.15 863.85 538.95 864 526 864.15 545.6 878.05 559.5 892.1 573.55 912 573.55 931.9 573.55 945.95 559.5 959.85 545.6 960 526 960.15 538.95 969.35 548.15 978.75 557.55 992 557.55 1005.25 557.55 1014.6 548.15 1023.85 538.95 1024 526 1024.15 545.6 1038.05 559.5 1052.1 573.55 1072 573.55 1091.9 573.55 1105.95 559.5 1119.85 545.6 1120 526 1120.15 538.95 1129.35 548.15 1138.75 557.55 1152 557.55 1165.25 557.55 1174.6 548.15 1183.85 538.95 1184 526 1184.15 545.6 1198.05 559.5 1212.1 573.55 1232 573.55 1251.9 573.55 1265.95 559.5 1279.85 545.6 1280 525.95 1280.2 538.85 1289.35 548 1298.75 557.4 1312 557.4 1325.25 557.4 1334.6 548 1343.85 538.8 1344 525.85 1344.15 545.45 1358.05 559.35 1372.1 573.4 1392 573.4 1411.9 573.4 1425.95 559.35 1439.85 545.45 1440 525.85 1440.15 538.8 1449.35 548 1458.75 557.4 1472 557.4 1485.25 557.4 1494.6 548 1503.85 538.8 1504 525.85 1504.15 545.45 1518.05 559.35 1532.1 573.4 1552 573.4 1571.9 573.4 1585.95 559.35 1599.85 545.45 1600 525.85 1600.15 538.8 1609.35 548 1618.75 557.4 1632 557.4 1645.25 557.4 1654.6 548 1663.85 538.8 1664 525.85 1664.15 545.45 1678.05 559.35 1692.1 573.4 1712 573.4 1731.9 573.4 1745.95 559.35 1759.85 545.45 1760 525.85 1760.15 538.8 1769.35 548 1778.75 557.4 1792 557.4 1805.25 557.4 1814.6 548 1823.85 538.8 1824 525.85 1824.15 545.45 1838.05 559.35 1852.1 573.4 1872 573.4 1891.9 573.4 1905.95 559.35 1919.85 545.45 1920 525.85 1920.35 538.45 1929.35 547.45 1938.75 556.85 1952 556.85Z"/><animate attributeName="display" repeatCount="indefinite" dur="8.333s" keyTimes="0;.35;.355;1" values="none;inline;none;none"/></g><g display="none" id="Layer20_0_FILL"><path fill="url(#Gradient_4)" stroke="none" d="M1952 556.85Q1965.25 556.85 1974.6 547.45 1983.65 538.45 1984 525.85 1984 545.75 1998.05 559.8 2012.1 573.85 2032 573.85 2051.9 573.85 2065.95 559.8 2080 545.75 2080 525.85L2080 332.85 0 332.85 0 525.85Q.15 538.8 9.35 548 18.75 557.4 32 557.4 45.25 557.4 54.6 548 63.85 538.8 64 525.85 64.15 545.45 78.05 559.35 92.1 573.4 112 573.4 131.9 573.4 145.95 559.35 159.85 545.45 160 525.85 160.15 538.8 169.35 548 178.75 557.4 192 557.4 205.25 557.4 214.6 548 223.85 538.8 224 525.85 224.15 545.45 238.05 559.35 252.1 573.4 272 573.4 291.9 573.4 305.95 559.35 319.85 545.45 320 525.85 320.15 538.8 329.35 548 338.75 557.4 352 557.4 365.25 557.4 374.6 548 383.85 538.8 384 525.85 384.15 545.45 398.05 559.35 412.1 573.4 432 573.4 451.9 573.4 465.95 559.35 479.85 545.45 480 525.85 480.15 538.8 489.35 548 498.75 557.4 512 557.4 525.25 557.4 534.6 548 543.85 538.8 544 525.85 544.15 545.45 558.05 559.35 572.1 573.4 592 573.4 611.9 573.4 625.95 559.35 639.8 545.5 640 526 640.15 538.95 649.35 548.15 658.75 557.55 672 557.55 685.25 557.55 694.6 548.15 703.85 538.95 704 526 704.15 545.6 718.05 559.5 732.1 573.55 752 573.55 771.9 573.55 785.95 559.5 799.85 545.6 800 526 800.15 538.95 809.35 548.15 818.75 557.55 832 557.55 845.25 557.55 854.6 548.15 863.85 538.95 864 526 864.15 545.6 878.05 559.5 892.1 573.55 912 573.55 931.9 573.55 945.95 559.5 959.85 545.6 960 526 960.15 538.95 969.35 548.15 978.75 557.55 992 557.55 1005.25 557.55 1014.6 548.15 1023.85 538.95 1024 526 1024.15 545.6 1038.05 559.5 1052.1 573.55 1072 573.55 1091.9 573.55 1105.95 559.5 1119.85 545.6 1120 526 1120.15 538.95 1129.35 548.15 1138.75 557.55 1152 557.55 1165.25 557.55 1174.6 548.15 1183.85 538.95 1184 526 1184.15 545.6 1198.05 559.5 1212.1 573.55 1232 573.55 1251.9 573.55 1265.95 559.5 1279.85 545.6 1280 525.95 1280.2 538.85 1289.35 548 1298.75 557.4 1312 557.4 1325.25 557.4 1334.6 548 1343.85 538.8 1344 525.85 1344.15 545.45 1358.05 559.35 1372.1 573.4 1392 573.4 1411.9 573.4 1425.95 559.35 1439.85 545.45 1440 525.85 1440.15 538.8 1449.35 548 1458.75 557.4 1472 557.4 1485.25 557.4 1494.6 548 1503.85 538.8 1504 525.85 1504.15 545.45 1518.05 559.35 1532.1 573.4 1552 573.4 1571.9 573.4 1585.95 559.35 1599.85 545.45 1600 525.85 1600.15 538.8 1609.35 548 1618.75 557.4 1632 557.4 1645.25 557.4 1654.6 548 1663.85 538.8 1664 525.85 1664.15 545.45 1678.05 559.35 1692.1 573.4 1712 573.4 1731.9 573.4 1745.95 559.35 1759.85 545.45 1760 525.85 1760.15 538.8 1769.35 548 1778.75 557.4 1792 557.4 1805.25 557.4 1814.6 548 1823.85 538.8 1824 525.85 1824.15 545.45 1838.05 559.35 1852.1 573.4 1872 573.4 1891.9 573.4 1905.95 559.35 1919.85 545.45 1920 525.85 1920.35 538.45 1929.35 547.45 1938.75 556.85 1952 556.85Z"/><animate attributeName="display" repeatCount="indefinite" dur="8.333s" keyTimes="0;.345;.35;1" values="none;inline;none;none"/></g><g display="none" id="Layer18_0_FILL"><path fill="url(#Gradient_5)" stroke="none" d="M1952 556.85Q1965.25 556.85 1974.6 547.45 1983.65 538.45 1984 525.85 1984 545.75 1998.05 559.8 2012.1 573.85 2032 573.85 2051.9 573.85 2065.95 559.8 2080 545.75 2080 525.85L2080 332.85 0 332.85 0 525.85Q.15 538.8 9.35 548 18.75 557.4 32 557.4 45.25 557.4 54.6 548 63.85 538.8 64 525.85 64.15 545.45 78.05 559.35 92.1 573.4 112 573.4 131.9 573.4 145.95 559.35 159.85 545.45 160 525.85 160.15 538.8 169.35 548 178.75 557.4 192 557.4 205.25 557.4 214.6 548 223.85 538.8 224 525.85 224.15 545.45 238.05 559.35 252.1 573.4 272 573.4 291.9 573.4 305.95 559.35 319.85 545.45 320 525.85 320.15 538.8 329.35 548 338.75 557.4 352 557.4 365.25 557.4 374.6 548 383.85 538.8 384 525.85 384.15 545.45 398.05 559.35 412.1 573.4 432 573.4 451.9 573.4 465.95 559.35 479.85 545.45 480 525.85 480.15 538.8 489.35 548 498.75 557.4 512 557.4 525.25 557.4 534.6 548 543.85 538.8 544 525.85 544.15 545.45 558.05 559.35 572.1 573.4 592 573.4 611.9 573.4 625.95 559.35 639.8 545.5 640 526 640.15 538.95 649.35 548.15 658.75 557.55 672 557.55 685.25 557.55 694.6 548.15 703.85 538.95 704 526 704.15 545.6 718.05 559.5 732.1 573.55 752 573.55 771.9 573.55 785.95 559.5 799.85 545.6 800 526 800.15 538.95 809.35 548.15 818.75 557.55 832 557.55 845.25 557.55 854.6 548.15 863.85 538.95 864 526 864.15 545.6 878.05 559.5 892.1 573.55 912 573.55 931.9 573.55 945.95 559.5 959.85 545.6 960 526 960.15 538.95 969.35 548.15 978.75 557.55 992 557.55 1005.25 557.55 1014.6 548.15 1023.85 538.95 1024 526 1024.15 545.6 1038.05 559.5 1052.1 573.55 1072 573.55 1091.9 573.55 1105.95 559.5 1119.85 545.6 1120 526 1120.15 538.95 1129.35 548.15 1138.75 557.55 1152 557.55 1165.25 557.55 1174.6 548.15 1183.85 538.95 1184 526 1184.15 545.6 1198.05 559.5 1212.1 573.55 1232 573.55 1251.9 573.55 1265.95 559.5 1279.85 545.6 1280 525.95 1280.2 538.85 1289.35 548 1298.75 557.4 1312 557.4 1325.25 557.4 1334.6 548 1343.85 538.8 1344 525.85 1344.15 545.45 1358.05 559.35 1372.1 573.4 1392 573.4 1411.9 573.4 1425.95 559.35 1439.85 545.45 1440 525.85 1440.15 538.8 1449.35 548 1458.75 557.4 1472 557.4 1485.25 557.4 1494.6 548 1503.85 538.8 1504 525.85 1504.15 545.45 1518.05 559.35 1532.1 573.4 1552 573.4 1571.9 573.4 1585.95 559.35 1599.85 545.45 1600 525.85 1600.15 538.8 1609.35 548 1618.75 557.4 1632 557.4 1645.25 557.4 1654.6 548 1663.85 538.8 1664 525.85 1664.15 545.45 1678.05 559.35 1692.1 573.4 1712 573.4 1731.9 573.4 1745.95 559.35 1759.85 545.45 1760 525.85 1760.15 538.8 1769.35 548 1778.75 557.4 1792 557.4 1805.25 557.4 1814.6 548 1823.85 538.8 1824 525.85 1824.15 545.45 1838.05 559.35 1852.1 573.4 1872 573.4 1891.9 573.4 1905.95 559.35 1919.85 545.45 1920 525.85 1920.35 538.45 1929.35 547.45 1938.75 556.85 1952 556.85Z"/><animate attributeName="display" repeatCount="indefinite" dur="8.333s" keyTimes="0;.315;.345;1" values="none;inline;none;none"/></g><g id="Layer17_0_FILL"><path fill="#8A8F99" stroke="none" d="M1952 556.85Q1965.25 556.85 1974.6 547.45 1983.65 538.45 1984 525.85 1984 545.75 1998.05 559.8 2012.1 573.85 2032 573.85 2051.9 573.85 2065.95 559.8 2080 545.75 2080 525.85L2080 332.85 0 332.85 0 525.85Q.15 538.8 9.35 548 18.75 557.4 32 557.4 45.25 557.4 54.6 548 63.85 538.8 64 525.85 64.15 545.45 78.05 559.35 92.1 573.4 112 573.4 131.9 573.4 145.95 559.35 159.85 545.45 160 525.85 160.15 538.8 169.35 548 178.75 557.4 192 557.4 205.25 557.4 214.6 548 223.85 538.8 224 525.85 224.15 545.45 238.05 559.35 252.1 573.4 272 573.4 291.9 573.4 305.95 559.35 319.85 545.45 320 525.85 320.15 538.8 329.35 548 338.75 557.4 352 557.4 365.25 557.4 374.6 548 383.85 538.8 384 525.85 384.15 545.45 398.05 559.35 412.1 573.4 432 573.4 451.9 573.4 465.95 559.35 479.85 545.45 480 525.85 480.15 538.8 489.35 548 498.75 557.4 512 557.4 525.25 557.4 534.6 548 543.85 538.8 544 525.85 544.15 545.45 558.05 559.35 572.1 573.4 592 573.4 611.9 573.4 625.95 559.35 639.8 545.5 640 526 640.15 538.95 649.35 548.15 658.75 557.55 672 557.55 685.25 557.55 694.6 548.15 703.85 538.95 704 526 704.15 545.6 718.05 559.5 732.1 573.55 752 573.55 771.9 573.55 785.95 559.5 799.85 545.6 800 526 800.15 538.95 809.35 548.15 818.75 557.55 832 557.55 845.25 557.55 854.6 548.15 863.85 538.95 864 526 864.15 545.6 878.05 559.5 892.1 573.55 912 573.55 931.9 573.55 945.95 559.5 959.85 545.6 960 526 960.15 538.95 969.35 548.15 978.75 557.55 992 557.55 1005.25 557.55 1014.6 548.15 1023.85 538.95 1024 526 1024.15 545.6 1038.05 559.5 1052.1 573.55 1072 573.55 1091.9 573.55 1105.95 559.5 1119.85 545.6 1120 526 1120.15 538.95 1129.35 548.15 1138.75 557.55 1152 557.55 1165.25 557.55 1174.6 548.15 1183.85 538.95 1184 526 1184.15 545.6 1198.05 559.5 1212.1 573.55 1232 573.55 1251.9 573.55 1265.95 559.5 1279.85 545.6 1280 525.95 1280.2 538.85 1289.35 548 1298.75 557.4 1312 557.4 1325.25 557.4 1334.6 548 1343.85 538.8 1344 525.85 1344.15 545.45 1358.05 559.35 1372.1 573.4 1392 573.4 1411.9 573.4 1425.95 559.35 1439.85 545.45 1440 525.85 1440.15 538.8 1449.35 548 1458.75 557.4 1472 557.4 1485.25 557.4 1494.6 548 1503.85 538.8 1504 525.85 1504.15 545.45 1518.05 559.35 1532.1 573.4 1552 573.4 1571.9 573.4 1585.95 559.35 1599.85 545.45 1600 525.85 1600.15 538.8 1609.35 548 1618.75 557.4 1632 557.4 1645.25 557.4 1654.6 548 1663.85 538.8 1664 525.85 1664.15 545.45 1678.05 559.35 1692.1 573.4 1712 573.4 1731.9 573.4 1745.95 559.35 1759.85 545.45 1760 525.85 1760.15 538.8 1769.35 548 1778.75 557.4 1792 557.4 1805.25 557.4 1814.6 548 1823.85 538.8 1824 525.85 1824.15 545.45 1838.05 559.35 1852.1 573.4 1872 573.4 1891.9 573.4 1905.95 559.35 1919.85 545.45 1920 525.85 1920.35 538.45 1929.35 547.45 1938.75 556.85 1952 556.85Z"/><animate attributeName="display" repeatCount="indefinite" dur="8.333s" keyTimes="0;.315;1" values="inline;none;none"/></g></g><g mask="url(#mask_)" display="none"><g id="Lightning-3" transform="translate(336 315.9)"><animate attributeName="opacity" repeatCount="indefinite" dur="8.333s" keyTimes="0;.14999;.175;1" values="1;1;0;0"/><path fill="#FFC" stroke="none" d="M152.95 0L54.25 180.95 118.15 244.85 84 302.1 0 468.1 91 323.1 104 419.95 103.35 300.95 136.85 242.35 72.8 178.3 166.1 7.2 152.95 0Z"/></g><animate attributeName="display" repeatCount="indefinite" dur="8.333s" keyTimes="0;.125;.18;1" values="none;inline;none;none"/></g><g mask="url(#mask_)"><g display="none" id="Layer16_0_FILL"><path fill="#BAC0CC" stroke="none" d="M1631.9 366.85Q1645.15 366.85 1654.5 357.45 1663.75 348.25 1663.9 335.3 1664.05 354.9 1677.95 368.8 1692 382.85 1711.9 382.85 1731.8 382.85 1745.85 368.8 1759.75 354.9 1759.9 335.3 1760.25 347.9 1769.25 356.9 1778.65 366.3 1791.9 366.3 1805.15 366.3 1814.5 356.9 1823.55 347.9 1823.9 335.3 1823.9 355.2 1837.95 369.25 1852 383.3 1871.9 383.3 1891.8 383.3 1905.85 369.25 1919.9 355.2 1919.9 335.3L1919.9 142.3 -160.1 142.3 -160.1 335.3Q-159.95 348.25 -150.75 357.45 -141.35 366.85 -128.1 366.85 -114.85 366.85 -105.5 357.45 -96.25 348.25 -96.1 335.3 -95.95 354.9 -82.05 368.8 -68 382.85 -48.1 382.85 -28.2 382.85 -14.15 368.8 -.25 354.9 -.1 335.3 .05 348.25 9.25 357.45 18.65 366.85 31.9 366.85 45.15 366.85 54.5 357.45 63.75 348.25 63.9 335.3 64.05 354.9 77.95 368.8 92 382.85 111.9 382.85 131.8 382.85 145.85 368.8 159.75 354.9 159.9 335.3 160.05 348.25 169.25 357.45 178.65 366.85 191.9 366.85 205.15 366.85 214.5 357.45 223.75 348.25 223.9 335.3 224.05 354.9 237.95 368.8 252 382.85 271.9 382.85 291.8 382.85 305.85 368.8 319.75 354.9 319.9 335.3 320.05 348.25 329.25 357.45 338.65 366.85 351.9 366.85 365.15 366.85 374.5 357.45 383.75 348.25 383.9 335.3 384.05 354.9 397.95 368.8 412 382.85 431.9 382.85 451.8 382.85 465.85 368.8 479.7 354.95 479.9 335.45 480.05 348.4 489.25 357.6 498.65 367 511.9 367 525.15 367 534.5 357.6 543.75 348.4 543.9 335.45 544.05 355.05 557.95 368.95 572 383 591.9 383 611.8 383 625.85 368.95 639.75 355.05 639.9 335.45 640.05 348.4 649.25 357.6 658.65 367 671.9 367 685.15 367 694.5 357.6 703.75 348.4 703.9 335.45 704.05 355.05 717.95 368.95 732 383 751.9 383 771.8 383 785.85 368.95 799.75 355.05 799.9 335.45 800.05 348.4 809.25 357.6 818.65 367 831.9 367 845.15 367 854.5 357.6 863.75 348.4 863.9 335.45 864.05 355.05 877.95 368.95 892 383 911.9 383 931.8 383 945.85 368.95 959.75 355.05 959.9 335.45 960.05 348.4 969.25 357.6 978.65 367 991.9 367 1005.15 367 1014.5 357.6 1023.75 348.4 1023.9 335.45 1024.05 355.05 1037.95 368.95 1052 383 1071.9 383 1091.8 383 1105.85 368.95 1119.75 355.05 1119.9 335.4 1120.1 348.3 1129.25 357.45 1138.65 366.85 1151.9 366.85 1165.15 366.85 1174.5 357.45 1183.75 348.25 1183.9 335.3 1184.05 354.9 1197.95 368.8 1212 382.85 1231.9 382.85 1251.8 382.85 1265.85 368.8 1279.75 354.9 1279.9 335.3 1280.05 348.25 1289.25 357.45 1298.65 366.85 1311.9 366.85 1325.15 366.85 1334.5 357.45 1343.75 348.25 1343.9 335.3 1344.05 354.9 1357.95 368.8 1372 382.85 1391.9 382.85 1411.8 382.85 1425.85 368.8 1439.75 354.9 1439.9 335.3 1440.05 348.25 1449.25 357.45 1458.65 366.85 1471.9 366.85 1485.15 366.85 1494.5 357.45 1503.75 348.25 1503.9 335.3 1504.05 354.9 1517.95 368.8 1532 382.85 1551.9 382.85 1571.8 382.85 1585.85 368.8 1599.75 354.9 1599.9 335.3 1600.05 348.25 1609.25 357.45 1618.65 366.85 1631.9 366.85Z"/><animate attributeName="display" repeatCount="indefinite" dur="8.333s" keyTimes="0;.175;1" values="none;inline;inline"/></g><g display="none" id="Layer15_0_FILL"><path fill="url(#Gradient_6)" stroke="none" d="M1631.9 366.85Q1645.15 366.85 1654.5 357.45 1663.75 348.25 1663.9 335.3 1664.05 354.9 1677.95 368.8 1692 382.85 1711.9 382.85 1731.8 382.85 1745.85 368.8 1759.75 354.9 1759.9 335.3 1760.25 347.9 1769.25 356.9 1778.65 366.3 1791.9 366.3 1805.15 366.3 1814.5 356.9 1823.55 347.9 1823.9 335.3 1823.9 355.2 1837.95 369.25 1852 383.3 1871.9 383.3 1891.8 383.3 1905.85 369.25 1919.9 355.2 1919.9 335.3L1919.9 142.3 -160.1 142.3 -160.1 335.3Q-159.95 348.25 -150.75 357.45 -141.35 366.85 -128.1 366.85 -114.85 366.85 -105.5 357.45 -96.25 348.25 -96.1 335.3 -95.95 354.9 -82.05 368.8 -68 382.85 -48.1 382.85 -28.2 382.85 -14.15 368.8 -.25 354.9 -.1 335.3 .05 348.25 9.25 357.45 18.65 366.85 31.9 366.85 45.15 366.85 54.5 357.45 63.75 348.25 63.9 335.3 64.05 354.9 77.95 368.8 92 382.85 111.9 382.85 131.8 382.85 145.85 368.8 159.75 354.9 159.9 335.3 160.05 348.25 169.25 357.45 178.65 366.85 191.9 366.85 205.15 366.85 214.5 357.45 223.75 348.25 223.9 335.3 224.05 354.9 237.95 368.8 252 382.85 271.9 382.85 291.8 382.85 305.85 368.8 319.75 354.9 319.9 335.3 320.05 348.25 329.25 357.45 338.65 366.85 351.9 366.85 365.15 366.85 374.5 357.45 383.75 348.25 383.9 335.3 384.05 354.9 397.95 368.8 412 382.85 431.9 382.85 451.8 382.85 465.85 368.8 479.7 354.95 479.9 335.45 480.05 348.4 489.25 357.6 498.65 367 511.9 367 525.15 367 534.5 357.6 543.75 348.4 543.9 335.45 544.05 355.05 557.95 368.95 572 383 591.9 383 611.8 383 625.85 368.95 639.75 355.05 639.9 335.45 640.05 348.4 649.25 357.6 658.65 367 671.9 367 685.15 367 694.5 357.6 703.75 348.4 703.9 335.45 704.05 355.05 717.95 368.95 732 383 751.9 383 771.8 383 785.85 368.95 799.75 355.05 799.9 335.45 800.05 348.4 809.25 357.6 818.65 367 831.9 367 845.15 367 854.5 357.6 863.75 348.4 863.9 335.45 864.05 355.05 877.95 368.95 892 383 911.9 383 931.8 383 945.85 368.95 959.75 355.05 959.9 335.45 960.05 348.4 969.25 357.6 978.65 367 991.9 367 1005.15 367 1014.5 357.6 1023.75 348.4 1023.9 335.45 1024.05 355.05 1037.95 368.95 1052 383 1071.9 383 1091.8 383 1105.85 368.95 1119.75 355.05 1119.9 335.4 1120.1 348.3 1129.25 357.45 1138.65 366.85 1151.9 366.85 1165.15 366.85 1174.5 357.45 1183.75 348.25 1183.9 335.3 1184.05 354.9 1197.95 368.8 1212 382.85 1231.9 382.85 1251.8 382.85 1265.85 368.8 1279.75 354.9 1279.9 335.3 1280.05 348.25 1289.25 357.45 1298.65 366.85 1311.9 366.85 1325.15 366.85 1334.5 357.45 1343.75 348.25 1343.9 335.3 1344.05 354.9 1357.95 368.8 1372 382.85 1391.9 382.85 1411.8 382.85 1425.85 368.8 1439.75 354.9 1439.9 335.3 1440.05 348.25 1449.25 357.45 1458.65 366.85 1471.9 366.85 1485.15 366.85 1494.5 357.45 1503.75 348.25 1503.9 335.3 1504.05 354.9 1517.95 368.8 1532 382.85 1551.9 382.85 1571.8 382.85 1585.85 368.8 1599.75 354.9 1599.9 335.3 1600.05 348.25 1609.25 357.45 1618.65 366.85 1631.9 366.85Z"/><animate attributeName="display" repeatCount="indefinite" dur="8.333s" keyTimes="0;.17;.175;1" values="none;inline;none;none"/></g><g display="none" id="Layer14_0_FILL"><path fill="url(#Gradient_7)" stroke="none" d="M1631.9 366.85Q1645.15 366.85 1654.5 357.45 1663.75 348.25 1663.9 335.3 1664.05 354.9 1677.95 368.8 1692 382.85 1711.9 382.85 1731.8 382.85 1745.85 368.8 1759.75 354.9 1759.9 335.3 1760.25 347.9 1769.25 356.9 1778.65 366.3 1791.9 366.3 1805.15 366.3 1814.5 356.9 1823.55 347.9 1823.9 335.3 1823.9 355.2 1837.95 369.25 1852 383.3 1871.9 383.3 1891.8 383.3 1905.85 369.25 1919.9 355.2 1919.9 335.3L1919.9 142.3 -160.1 142.3 -160.1 335.3Q-159.95 348.25 -150.75 357.45 -141.35 366.85 -128.1 366.85 -114.85 366.85 -105.5 357.45 -96.25 348.25 -96.1 335.3 -95.95 354.9 -82.05 368.8 -68 382.85 -48.1 382.85 -28.2 382.85 -14.15 368.8 -.25 354.9 -.1 335.3 .05 348.25 9.25 357.45 18.65 366.85 31.9 366.85 45.15 366.85 54.5 357.45 63.75 348.25 63.9 335.3 64.05 354.9 77.95 368.8 92 382.85 111.9 382.85 131.8 382.85 145.85 368.8 159.75 354.9 159.9 335.3 160.05 348.25 169.25 357.45 178.65 366.85 191.9 366.85 205.15 366.85 214.5 357.45 223.75 348.25 223.9 335.3 224.05 354.9 237.95 368.8 252 382.85 271.9 382.85 291.8 382.85 305.85 368.8 319.75 354.9 319.9 335.3 320.05 348.25 329.25 357.45 338.65 366.85 351.9 366.85 365.15 366.85 374.5 357.45 383.75 348.25 383.9 335.3 384.05 354.9 397.95 368.8 412 382.85 431.9 382.85 451.8 382.85 465.85 368.8 479.7 354.95 479.9 335.45 480.05 348.4 489.25 357.6 498.65 367 511.9 367 525.15 367 534.5 357.6 543.75 348.4 543.9 335.45 544.05 355.05 557.95 368.95 572 383 591.9 383 611.8 383 625.85 368.95 639.75 355.05 639.9 335.45 640.05 348.4 649.25 357.6 658.65 367 671.9 367 685.15 367 694.5 357.6 703.75 348.4 703.9 335.45 704.05 355.05 717.95 368.95 732 383 751.9 383 771.8 383 785.85 368.95 799.75 355.05 799.9 335.45 800.05 348.4 809.25 357.6 818.65 367 831.9 367 845.15 367 854.5 357.6 863.75 348.4 863.9 335.45 864.05 355.05 877.95 368.95 892 383 911.9 383 931.8 383 945.85 368.95 959.75 355.05 959.9 335.45 960.05 348.4 969.25 357.6 978.65 367 991.9 367 1005.15 367 1014.5 357.6 1023.75 348.4 1023.9 335.45 1024.05 355.05 1037.95 368.95 1052 383 1071.9 383 1091.8 383 1105.85 368.95 1119.75 355.05 1119.9 335.4 1120.1 348.3 1129.25 357.45 1138.65 366.85 1151.9 366.85 1165.15 366.85 1174.5 357.45 1183.75 348.25 1183.9 335.3 1184.05 354.9 1197.95 368.8 1212 382.85 1231.9 382.85 1251.8 382.85 1265.85 368.8 1279.75 354.9 1279.9 335.3 1280.05 348.25 1289.25 357.45 1298.65 366.85 1311.9 366.85 1325.15 366.85 1334.5 357.45 1343.75 348.25 1343.9 335.3 1344.05 354.9 1357.95 368.8 1372 382.85 1391.9 382.85 1411.8 382.85 1425.85 368.8 1439.75 354.9 1439.9 335.3 1440.05 348.25 1449.25 357.45 1458.65 366.85 1471.9 366.85 1485.15 366.85 1494.5 357.45 1503.75 348.25 1503.9 335.3 1504.05 354.9 1517.95 368.8 1532 382.85 1551.9 382.85 1571.8 382.85 1585.85 368.8 1599.75 354.9 1599.9 335.3 1600.05 348.25 1609.25 357.45 1618.65 366.85 1631.9 366.85Z"/><animate attributeName="display" repeatCount="indefinite" dur="8.333s" keyTimes="0;.165;.17;1" values="none;inline;none;none"/></g><g display="none" id="Layer13_0_FILL"><path fill="url(#Gradient_8)" stroke="none" d="M1631.9 366.85Q1645.15 366.85 1654.5 357.45 1663.75 348.25 1663.9 335.3 1664.05 354.9 1677.95 368.8 1692 382.85 1711.9 382.85 1731.8 382.85 1745.85 368.8 1759.75 354.9 1759.9 335.3 1760.25 347.9 1769.25 356.9 1778.65 366.3 1791.9 366.3 1805.15 366.3 1814.5 356.9 1823.55 347.9 1823.9 335.3 1823.9 355.2 1837.95 369.25 1852 383.3 1871.9 383.3 1891.8 383.3 1905.85 369.25 1919.9 355.2 1919.9 335.3L1919.9 142.3 -160.1 142.3 -160.1 335.3Q-159.95 348.25 -150.75 357.45 -141.35 366.85 -128.1 366.85 -114.85 366.85 -105.5 357.45 -96.25 348.25 -96.1 335.3 -95.95 354.9 -82.05 368.8 -68 382.85 -48.1 382.85 -28.2 382.85 -14.15 368.8 -.25 354.9 -.1 335.3 .05 348.25 9.25 357.45 18.65 366.85 31.9 366.85 45.15 366.85 54.5 357.45 63.75 348.25 63.9 335.3 64.05 354.9 77.95 368.8 92 382.85 111.9 382.85 131.8 382.85 145.85 368.8 159.75 354.9 159.9 335.3 160.05 348.25 169.25 357.45 178.65 366.85 191.9 366.85 205.15 366.85 214.5 357.45 223.75 348.25 223.9 335.3 224.05 354.9 237.95 368.8 252 382.85 271.9 382.85 291.8 382.85 305.85 368.8 319.75 354.9 319.9 335.3 320.05 348.25 329.25 357.45 338.65 366.85 351.9 366.85 365.15 366.85 374.5 357.45 383.75 348.25 383.9 335.3 384.05 354.9 397.95 368.8 412 382.85 431.9 382.85 451.8 382.85 465.85 368.8 479.7 354.95 479.9 335.45 480.05 348.4 489.25 357.6 498.65 367 511.9 367 525.15 367 534.5 357.6 543.75 348.4 543.9 335.45 544.05 355.05 557.95 368.95 572 383 591.9 383 611.8 383 625.85 368.95 639.75 355.05 639.9 335.45 640.05 348.4 649.25 357.6 658.65 367 671.9 367 685.15 367 694.5 357.6 703.75 348.4 703.9 335.45 704.05 355.05 717.95 368.95 732 383 751.9 383 771.8 383 785.85 368.95 799.75 355.05 799.9 335.45 800.05 348.4 809.25 357.6 818.65 367 831.9 367 845.15 367 854.5 357.6 863.75 348.4 863.9 335.45 864.05 355.05 877.95 368.95 892 383 911.9 383 931.8 383 945.85 368.95 959.75 355.05 959.9 335.45 960.05 348.4 969.25 357.6 978.65 367 991.9 367 1005.15 367 1014.5 357.6 1023.75 348.4 1023.9 335.45 1024.05 355.05 1037.95 368.95 1052 383 1071.9 383 1091.8 383 1105.85 368.95 1119.75 355.05 1119.9 335.4 1120.1 348.3 1129.25 357.45 1138.65 366.85 1151.9 366.85 1165.15 366.85 1174.5 357.45 1183.75 348.25 1183.9 335.3 1184.05 354.9 1197.95 368.8 1212 382.85 1231.9 382.85 1251.8 382.85 1265.85 368.8 1279.75 354.9 1279.9 335.3 1280.05 348.25 1289.25 357.45 1298.65 366.85 1311.9 366.85 1325.15 366.85 1334.5 357.45 1343.75 348.25 1343.9 335.3 1344.05 354.9 1357.95 368.8 1372 382.85 1391.9 382.85 1411.8 382.85 1425.85 368.8 1439.75 354.9 1439.9 335.3 1440.05 348.25 1449.25 357.45 1458.65 366.85 1471.9 366.85 1485.15 366.85 1494.5 357.45 1503.75 348.25 1503.9 335.3 1504.05 354.9 1517.95 368.8 1532 382.85 1551.9 382.85 1571.8 382.85 1585.85 368.8 1599.75 354.9 1599.9 335.3 1600.05 348.25 1609.25 357.45 1618.65 366.85 1631.9 366.85Z"/><animate attributeName="display" repeatCount="indefinite" dur="8.333s" keyTimes="0;.16;.165;1" values="none;inline;none;none"/></g><g display="none" id="Layer12_0_FILL"><path fill="url(#Gradient_9)" stroke="none" d="M1631.9 366.85Q1645.15 366.85 1654.5 357.45 1663.75 348.25 1663.9 335.3 1664.05 354.9 1677.95 368.8 1692 382.85 1711.9 382.85 1731.8 382.85 1745.85 368.8 1759.75 354.9 1759.9 335.3 1760.25 347.9 1769.25 356.9 1778.65 366.3 1791.9 366.3 1805.15 366.3 1814.5 356.9 1823.55 347.9 1823.9 335.3 1823.9 355.2 1837.95 369.25 1852 383.3 1871.9 383.3 1891.8 383.3 1905.85 369.25 1919.9 355.2 1919.9 335.3L1919.9 142.3 -160.1 142.3 -160.1 335.3Q-159.95 348.25 -150.75 357.45 -141.35 366.85 -128.1 366.85 -114.85 366.85 -105.5 357.45 -96.25 348.25 -96.1 335.3 -95.95 354.9 -82.05 368.8 -68 382.85 -48.1 382.85 -28.2 382.85 -14.15 368.8 -.25 354.9 -.1 335.3 .05 348.25 9.25 357.45 18.65 366.85 31.9 366.85 45.15 366.85 54.5 357.45 63.75 348.25 63.9 335.3 64.05 354.9 77.95 368.8 92 382.85 111.9 382.85 131.8 382.85 145.85 368.8 159.75 354.9 159.9 335.3 160.05 348.25 169.25 357.45 178.65 366.85 191.9 366.85 205.15 366.85 214.5 357.45 223.75 348.25 223.9 335.3 224.05 354.9 237.95 368.8 252 382.85 271.9 382.85 291.8 382.85 305.85 368.8 319.75 354.9 319.9 335.3 320.05 348.25 329.25 357.45 338.65 366.85 351.9 366.85 365.15 366.85 374.5 357.45 383.75 348.25 383.9 335.3 384.05 354.9 397.95 368.8 412 382.85 431.9 382.85 451.8 382.85 465.85 368.8 479.7 354.95 479.9 335.45 480.05 348.4 489.25 357.6 498.65 367 511.9 367 525.15 367 534.5 357.6 543.75 348.4 543.9 335.45 544.05 355.05 557.95 368.95 572 383 591.9 383 611.8 383 625.85 368.95 639.75 355.05 639.9 335.45 640.05 348.4 649.25 357.6 658.65 367 671.9 367 685.15 367 694.5 357.6 703.75 348.4 703.9 335.45 704.05 355.05 717.95 368.95 732 383 751.9 383 771.8 383 785.85 368.95 799.75 355.05 799.9 335.45 800.05 348.4 809.25 357.6 818.65 367 831.9 367 845.15 367 854.5 357.6 863.75 348.4 863.9 335.45 864.05 355.05 877.95 368.95 892 383 911.9 383 931.8 383 945.85 368.95 959.75 355.05 959.9 335.45 960.05 348.4 969.25 357.6 978.65 367 991.9 367 1005.15 367 1014.5 357.6 1023.75 348.4 1023.9 335.45 1024.05 355.05 1037.95 368.95 1052 383 1071.9 383 1091.8 383 1105.85 368.95 1119.75 355.05 1119.9 335.4 1120.1 348.3 1129.25 357.45 1138.65 366.85 1151.9 366.85 1165.15 366.85 1174.5 357.45 1183.75 348.25 1183.9 335.3 1184.05 354.9 1197.95 368.8 1212 382.85 1231.9 382.85 1251.8 382.85 1265.85 368.8 1279.75 354.9 1279.9 335.3 1280.05 348.25 1289.25 357.45 1298.65 366.85 1311.9 366.85 1325.15 366.85 1334.5 357.45 1343.75 348.25 1343.9 335.3 1344.05 354.9 1357.95 368.8 1372 382.85 1391.9 382.85 1411.8 382.85 1425.85 368.8 1439.75 354.9 1439.9 335.3 1440.05 348.25 1449.25 357.45 1458.65 366.85 1471.9 366.85 1485.15 366.85 1494.5 357.45 1503.75 348.25 1503.9 335.3 1504.05 354.9 1517.95 368.8 1532 382.85 1551.9 382.85 1571.8 382.85 1585.85 368.8 1599.75 354.9 1599.9 335.3 1600.05 348.25 1609.25 357.45 1618.65 366.85 1631.9 366.85Z"/><animate attributeName="display" repeatCount="indefinite" dur="8.333s" keyTimes="0;.155;.16;1" values="none;inline;none;none"/></g><g display="none" id="Layer10_0_FILL"><path fill="url(#Gradient_10)" stroke="none" d="M1631.9 366.85Q1645.15 366.85 1654.5 357.45 1663.75 348.25 1663.9 335.3 1664.05 354.9 1677.95 368.8 1692 382.85 1711.9 382.85 1731.8 382.85 1745.85 368.8 1759.75 354.9 1759.9 335.3 1760.25 347.9 1769.25 356.9 1778.65 366.3 1791.9 366.3 1805.15 366.3 1814.5 356.9 1823.55 347.9 1823.9 335.3 1823.9 355.2 1837.95 369.25 1852 383.3 1871.9 383.3 1891.8 383.3 1905.85 369.25 1919.9 355.2 1919.9 335.3L1919.9 142.3 -160.1 142.3 -160.1 335.3Q-159.95 348.25 -150.75 357.45 -141.35 366.85 -128.1 366.85 -114.85 366.85 -105.5 357.45 -96.25 348.25 -96.1 335.3 -95.95 354.9 -82.05 368.8 -68 382.85 -48.1 382.85 -28.2 382.85 -14.15 368.8 -.25 354.9 -.1 335.3 .05 348.25 9.25 357.45 18.65 366.85 31.9 366.85 45.15 366.85 54.5 357.45 63.75 348.25 63.9 335.3 64.05 354.9 77.95 368.8 92 382.85 111.9 382.85 131.8 382.85 145.85 368.8 159.75 354.9 159.9 335.3 160.05 348.25 169.25 357.45 178.65 366.85 191.9 366.85 205.15 366.85 214.5 357.45 223.75 348.25 223.9 335.3 224.05 354.9 237.95 368.8 252 382.85 271.9 382.85 291.8 382.85 305.85 368.8 319.75 354.9 319.9 335.3 320.05 348.25 329.25 357.45 338.65 366.85 351.9 366.85 365.15 366.85 374.5 357.45 383.75 348.25 383.9 335.3 384.05 354.9 397.95 368.8 412 382.85 431.9 382.85 451.8 382.85 465.85 368.8 479.7 354.95 479.9 335.45 480.05 348.4 489.25 357.6 498.65 367 511.9 367 525.15 367 534.5 357.6 543.75 348.4 543.9 335.45 544.05 355.05 557.95 368.95 572 383 591.9 383 611.8 383 625.85 368.95 639.75 355.05 639.9 335.45 640.05 348.4 649.25 357.6 658.65 367 671.9 367 685.15 367 694.5 357.6 703.75 348.4 703.9 335.45 704.05 355.05 717.95 368.95 732 383 751.9 383 771.8 383 785.85 368.95 799.75 355.05 799.9 335.45 800.05 348.4 809.25 357.6 818.65 367 831.9 367 845.15 367 854.5 357.6 863.75 348.4 863.9 335.45 864.05 355.05 877.95 368.95 892 383 911.9 383 931.8 383 945.85 368.95 959.75 355.05 959.9 335.45 960.05 348.4 969.25 357.6 978.65 367 991.9 367 1005.15 367 1014.5 357.6 1023.75 348.4 1023.9 335.45 1024.05 355.05 1037.95 368.95 1052 383 1071.9 383 1091.8 383 1105.85 368.95 1119.75 355.05 1119.9 335.4 1120.1 348.3 1129.25 357.45 1138.65 366.85 1151.9 366.85 1165.15 366.85 1174.5 357.45 1183.75 348.25 1183.9 335.3 1184.05 354.9 1197.95 368.8 1212 382.85 1231.9 382.85 1251.8 382.85 1265.85 368.8 1279.75 354.9 1279.9 335.3 1280.05 348.25 1289.25 357.45 1298.65 366.85 1311.9 366.85 1325.15 366.85 1334.5 357.45 1343.75 348.25 1343.9 335.3 1344.05 354.9 1357.95 368.8 1372 382.85 1391.9 382.85 1411.8 382.85 1425.85 368.8 1439.75 354.9 1439.9 335.3 1440.05 348.25 1449.25 357.45 1458.65 366.85 1471.9 366.85 1485.15 366.85 1494.5 357.45 1503.75 348.25 1503.9 335.3 1504.05 354.9 1517.95 368.8 1532 382.85 1551.9 382.85 1571.8 382.85 1585.85 368.8 1599.75 354.9 1599.9 335.3 1600.05 348.25 1609.25 357.45 1618.65 366.85 1631.9 366.85Z"/><animate attributeName="display" repeatCount="indefinite" dur="8.333s" keyTimes="0;.125;.155;1" values="none;inline;none;none"/></g><g id="Layer9_0_FILL"><path fill="#BAC0CC" stroke="none" d="M1631.9 366.85Q1645.15 366.85 1654.5 357.45 1663.75 348.25 1663.9 335.3 1664.05 354.9 1677.95 368.8 1692 382.85 1711.9 382.85 1731.8 382.85 1745.85 368.8 1759.75 354.9 1759.9 335.3 1760.25 347.9 1769.25 356.9 1778.65 366.3 1791.9 366.3 1805.15 366.3 1814.5 356.9 1823.55 347.9 1823.9 335.3 1823.9 355.2 1837.95 369.25 1852 383.3 1871.9 383.3 1891.8 383.3 1905.85 369.25 1919.9 355.2 1919.9 335.3L1919.9 142.3 -160.1 142.3 -160.1 335.3Q-159.95 348.25 -150.75 357.45 -141.35 366.85 -128.1 366.85 -114.85 366.85 -105.5 357.45 -96.25 348.25 -96.1 335.3 -95.95 354.9 -82.05 368.8 -68 382.85 -48.1 382.85 -28.2 382.85 -14.15 368.8 -.25 354.9 -.1 335.3 .05 348.25 9.25 357.45 18.65 366.85 31.9 366.85 45.15 366.85 54.5 357.45 63.75 348.25 63.9 335.3 64.05 354.9 77.95 368.8 92 382.85 111.9 382.85 131.8 382.85 145.85 368.8 159.75 354.9 159.9 335.3 160.05 348.25 169.25 357.45 178.65 366.85 191.9 366.85 205.15 366.85 214.5 357.45 223.75 348.25 223.9 335.3 224.05 354.9 237.95 368.8 252 382.85 271.9 382.85 291.8 382.85 305.85 368.8 319.75 354.9 319.9 335.3 320.05 348.25 329.25 357.45 338.65 366.85 351.9 366.85 365.15 366.85 374.5 357.45 383.75 348.25 383.9 335.3 384.05 354.9 397.95 368.8 412 382.85 431.9 382.85 451.8 382.85 465.85 368.8 479.7 354.95 479.9 335.45 480.05 348.4 489.25 357.6 498.65 367 511.9 367 525.15 367 534.5 357.6 543.75 348.4 543.9 335.45 544.05 355.05 557.95 368.95 572 383 591.9 383 611.8 383 625.85 368.95 639.75 355.05 639.9 335.45 640.05 348.4 649.25 357.6 658.65 367 671.9 367 685.15 367 694.5 357.6 703.75 348.4 703.9 335.45 704.05 355.05 717.95 368.95 732 383 751.9 383 771.8 383 785.85 368.95 799.75 355.05 799.9 335.45 800.05 348.4 809.25 357.6 818.65 367 831.9 367 845.15 367 854.5 357.6 863.75 348.4 863.9 335.45 864.05 355.05 877.95 368.95 892 383 911.9 383 931.8 383 945.85 368.95 959.75 355.05 959.9 335.45 960.05 348.4 969.25 357.6 978.65 367 991.9 367 1005.15 367 1014.5 357.6 1023.75 348.4 1023.9 335.45 1024.05 355.05 1037.95 368.95 1052 383 1071.9 383 1091.8 383 1105.85 368.95 1119.75 355.05 1119.9 335.4 1120.1 348.3 1129.25 357.45 1138.65 366.85 1151.9 366.85 1165.15 366.85 1174.5 357.45 1183.75 348.25 1183.9 335.3 1184.05 354.9 1197.95 368.8 1212 382.85 1231.9 382.85 1251.8 382.85 1265.85 368.8 1279.75 354.9 1279.9 335.3 1280.05 348.25 1289.25 357.45 1298.65 366.85 1311.9 366.85 1325.15 366.85 1334.5 357.45 1343.75 348.25 1343.9 335.3 1344.05 354.9 1357.95 368.8 1372 382.85 1391.9 382.85 1411.8 382.85 1425.85 368.8 1439.75 354.9 1439.9 335.3 1440.05 348.25 1449.25 357.45 1458.65 366.85 1471.9 366.85 1485.15 366.85 1494.5 357.45 1503.75 348.25 1503.9 335.3 1504.05 354.9 1517.95 368.8 1532 382.85 1551.9 382.85 1571.8 382.85 1585.85 368.8 1599.75 354.9 1599.9 335.3 1600.05 348.25 1609.25 357.45 1618.65 366.85 1631.9 366.85Z"/><animate attributeName="display" repeatCount="indefinite" dur="8.333s" keyTimes="0;.125;1" values="inline;none;none"/></g></g><g mask="url(#mask_)" display="none"><g id="Lightning-02" transform="translate(727.5 65.95)"><animate attributeName="opacity" repeatCount="indefinite" dur="8.333s" keyTimes="0;.54499;.57;1" values="1;1;0;0"/><path fill="#FFC" stroke="none" d="M320.9 9.15L303.1 0 170.85 257.3 326.05 350.45 272.85 389.8Q272.7 389.9 272.6 390 272.55 390 272.5 390.05L84.4 527.5 293.3 623.95 128.5 758.75 0 951.5 85.75 859 129.25 921.7 99.6 838.2 143.5 772.35 330.7 619.2 123.65 523.6 275.5 412.65 336.6 516.7 447.55 587.3 416.95 730.65 461.05 595.9 568.5 638.05 351.45 502.45 291.7 400.75 362 348.7 197.2 249.8 320.9 9.15Z"/></g><animate attributeName="display" repeatCount="indefinite" dur="8.333s" keyTimes="0;.52;.575;1" values="none;inline;none;none"/></g><g mask="url(#mask_)"><g display="none" id="Layer8_0_FILL"><path fill="#FFF" stroke="none" d="M1792 174.55Q1805.25 174.55 1814.6 165.15 1823.85 155.95 1824 143 1824.15 162.6 1838.05 176.5 1852.1 190.55 1872 190.55 1891.9 190.55 1905.95 176.5 1919.85 162.6 1920 143 1920.35 155.6 1929.35 164.6 1938.75 174 1952 174 1965.25 174 1974.6 164.6 1983.65 155.6 1984 143 1984 162.9 1998.05 176.95 2012.1 191 2032 191 2051.9 191 2065.95 176.95 2080 162.9 2080 143L2080 -50 0 -50 0 143Q.15 155.95 9.35 165.15 18.75 174.55 32 174.55 45.25 174.55 54.6 165.15 63.85 155.95 64 143 64.15 162.6 78.05 176.5 92.1 190.55 112 190.55 131.9 190.55 145.95 176.5 159.85 162.6 160 143 160.15 155.95 169.35 165.15 178.75 174.55 192 174.55 205.25 174.55 214.6 165.15 223.85 155.95 224 143 224.15 162.6 238.05 176.5 252.1 190.55 272 190.55 291.9 190.55 305.95 176.5 319.85 162.6 320 143 320.15 155.95 329.35 165.15 338.75 174.55 352 174.55 365.25 174.55 374.6 165.15 383.85 155.95 384 143 384.15 162.6 398.05 176.5 412.1 190.55 432 190.55 451.9 190.55 465.95 176.5 479.85 162.6 480 143 480.15 155.95 489.35 165.15 498.75 174.55 512 174.55 525.25 174.55 534.6 165.15 543.85 155.95 544 143 544.15 162.6 558.05 176.5 572.1 190.55 592 190.55 611.9 190.55 625.95 176.5 639.8 162.65 640 143.15 640.15 156.1 649.35 165.3 658.75 174.7 672 174.7 685.25 174.7 694.6 165.3 703.85 156.1 704 143.15 704.15 162.75 718.05 176.65 732.1 190.7 752 190.7 771.9 190.7 785.95 176.65 799.85 162.75 800 143.15 800.15 156.1 809.35 165.3 818.75 174.7 832 174.7 845.25 174.7 854.6 165.3 863.85 156.1 864 143.15 864.15 162.75 878.05 176.65 892.1 190.7 912 190.7 931.9 190.7 945.95 176.65 959.85 162.75 960 143.15 960.15 156.1 969.35 165.3 978.75 174.7 992 174.7 1005.25 174.7 1014.6 165.3 1023.85 156.1 1024 143.15 1024.15 162.75 1038.05 176.65 1052.1 190.7 1072 190.7 1091.9 190.7 1105.95 176.65 1119.85 162.75 1120 143.15 1120.15 156.1 1129.35 165.3 1138.75 174.7 1152 174.7 1165.25 174.7 1174.6 165.3 1183.85 156.1 1184 143.15 1184.15 162.75 1198.05 176.65 1212.1 190.7 1232 190.7 1251.9 190.7 1265.95 176.65 1279.85 162.75 1280 143.1 1280.2 156 1289.35 165.15 1298.75 174.55 1312 174.55 1325.25 174.55 1334.6 165.15 1343.85 155.95 1344 143 1344.15 162.6 1358.05 176.5 1372.1 190.55 1392 190.55 1411.9 190.55 1425.95 176.5 1439.85 162.6 1440 143 1440.15 155.95 1449.35 165.15 1458.75 174.55 1472 174.55 1485.25 174.55 1494.6 165.15 1503.85 155.95 1504 143 1504.15 162.6 1518.05 176.5 1532.1 190.55 1552 190.55 1571.9 190.55 1585.95 176.5 1599.85 162.6 1600 143 1600.15 155.95 1609.35 165.15 1618.75 174.55 1632 174.55 1645.25 174.55 1654.6 165.15 1663.85 155.95 1664 143 1664.15 162.6 1678.05 176.5 1692.1 190.55 1712 190.55 1731.9 190.55 1745.95 176.5 1759.85 162.6 1760 143 1760.15 155.95 1769.35 165.15 1778.75 174.55 1792 174.55Z"/><animate attributeName="display" repeatCount="indefinite" dur="8.333s" keyTimes="0;.57;1" values="none;inline;inline"/></g><g display="none" id="Layer7_0_FILL"><path fill="url(#Gradient_11)" stroke="none" d="M2080 -50L0 -50 0 143Q.15 155.95 9.35 165.15 18.75 174.55 32 174.55 45.25 174.55 54.6 165.15 63.85 155.95 64 143 64.15 162.6 78.05 176.5 92.1 190.55 112 190.55 131.9 190.55 145.95 176.5 159.85 162.6 160 143 160.15 155.95 169.35 165.15 178.75 174.55 192 174.55 205.25 174.55 214.6 165.15 223.85 155.95 224 143 224.15 162.6 238.05 176.5 252.1 190.55 272 190.55 291.9 190.55 305.95 176.5 319.85 162.6 320 143 320.15 155.95 329.35 165.15 338.75 174.55 352 174.55 365.25 174.55 374.6 165.15 383.85 155.95 384 143 384.15 162.6 398.05 176.5 412.1 190.55 432 190.55 451.9 190.55 465.95 176.5 479.85 162.6 480 143 480.15 155.95 489.35 165.15 498.75 174.55 512 174.55 525.25 174.55 534.6 165.15 543.85 155.95 544 143 544.15 162.6 558.05 176.5 572.1 190.55 592 190.55 611.9 190.55 625.95 176.5 639.8 162.65 640 143.15 640.15 156.1 649.35 165.3 658.75 174.7 672 174.7 685.25 174.7 694.6 165.3 703.85 156.1 704 143.15 704.15 162.75 718.05 176.65 732.1 190.7 752 190.7 771.9 190.7 785.95 176.65 799.85 162.75 800 143.15 800.15 156.1 809.35 165.3 818.75 174.7 832 174.7 845.25 174.7 854.6 165.3 863.85 156.1 864 143.15 864.15 162.75 878.05 176.65 892.1 190.7 912 190.7 931.9 190.7 945.95 176.65 959.85 162.75 960 143.15 960.15 156.1 969.35 165.3 978.75 174.7 992 174.7 1005.25 174.7 1014.6 165.3 1023.85 156.1 1024 143.15 1024.15 162.75 1038.05 176.65 1052.1 190.7 1072 190.7 1091.9 190.7 1105.95 176.65 1119.85 162.75 1120 143.15 1120.15 156.1 1129.35 165.3 1138.75 174.7 1152 174.7 1165.25 174.7 1174.6 165.3 1183.85 156.1 1184 143.15 1184.15 162.75 1198.05 176.65 1212.1 190.7 1232 190.7 1251.9 190.7 1265.95 176.65 1279.85 162.75 1280 143.1 1280.2 156 1289.35 165.15 1298.75 174.55 1312 174.55 1325.25 174.55 1334.6 165.15 1343.85 155.95 1344 143 1344.15 162.6 1358.05 176.5 1372.1 190.55 1392 190.55 1411.9 190.55 1425.95 176.5 1439.85 162.6 1440 143 1440.15 155.95 1449.35 165.15 1458.75 174.55 1472 174.55 1485.25 174.55 1494.6 165.15 1503.85 155.95 1504 143 1504.15 162.6 1518.05 176.5 1532.1 190.55 1552 190.55 1571.9 190.55 1585.95 176.5 1599.85 162.6 1600 143 1600.15 155.95 1609.35 165.15 1618.75 174.55 1632 174.55 1645.25 174.55 1654.6 165.15 1663.85 155.95 1664 143 1664.15 162.6 1678.05 176.5 1692.1 190.55 1712 190.55 1731.9 190.55 1745.95 176.5 1759.85 162.6 1760 143 1760.15 155.95 1769.35 165.15 1778.75 174.55 1792 174.55 1805.25 174.55 1814.6 165.15 1823.85 155.95 1824 143 1824.15 162.6 1838.05 176.5 1852.1 190.55 1872 190.55 1891.9 190.55 1905.95 176.5 1919.85 162.6 1920 143 1920.35 155.6 1929.35 164.6 1938.75 174 1952 174 1965.25 174 1974.6 164.6 1983.65 155.6 1984 143 1984 162.9 1998.05 176.95 2012.1 191 2032 191 2051.9 191 2065.95 176.95 2080 162.9 2080 143L2080 -50Z"/><animate attributeName="display" repeatCount="indefinite" dur="8.333s" keyTimes="0;.565;.57;1" values="none;inline;none;none"/></g><g display="none" id="Layer6_0_FILL"><path fill="url(#Gradient_12)" stroke="none" d="M2080 -50L0 -50 0 143Q.15 155.95 9.35 165.15 18.75 174.55 32 174.55 45.25 174.55 54.6 165.15 63.85 155.95 64 143 64.15 162.6 78.05 176.5 92.1 190.55 112 190.55 131.9 190.55 145.95 176.5 159.85 162.6 160 143 160.15 155.95 169.35 165.15 178.75 174.55 192 174.55 205.25 174.55 214.6 165.15 223.85 155.95 224 143 224.15 162.6 238.05 176.5 252.1 190.55 272 190.55 291.9 190.55 305.95 176.5 319.85 162.6 320 143 320.15 155.95 329.35 165.15 338.75 174.55 352 174.55 365.25 174.55 374.6 165.15 383.85 155.95 384 143 384.15 162.6 398.05 176.5 412.1 190.55 432 190.55 451.9 190.55 465.95 176.5 479.85 162.6 480 143 480.15 155.95 489.35 165.15 498.75 174.55 512 174.55 525.25 174.55 534.6 165.15 543.85 155.95 544 143 544.15 162.6 558.05 176.5 572.1 190.55 592 190.55 611.9 190.55 625.95 176.5 639.8 162.65 640 143.15 640.15 156.1 649.35 165.3 658.75 174.7 672 174.7 685.25 174.7 694.6 165.3 703.85 156.1 704 143.15 704.15 162.75 718.05 176.65 732.1 190.7 752 190.7 771.9 190.7 785.95 176.65 799.85 162.75 800 143.15 800.15 156.1 809.35 165.3 818.75 174.7 832 174.7 845.25 174.7 854.6 165.3 863.85 156.1 864 143.15 864.15 162.75 878.05 176.65 892.1 190.7 912 190.7 931.9 190.7 945.95 176.65 959.85 162.75 960 143.15 960.15 156.1 969.35 165.3 978.75 174.7 992 174.7 1005.25 174.7 1014.6 165.3 1023.85 156.1 1024 143.15 1024.15 162.75 1038.05 176.65 1052.1 190.7 1072 190.7 1091.9 190.7 1105.95 176.65 1119.85 162.75 1120 143.15 1120.15 156.1 1129.35 165.3 1138.75 174.7 1152 174.7 1165.25 174.7 1174.6 165.3 1183.85 156.1 1184 143.15 1184.15 162.75 1198.05 176.65 1212.1 190.7 1232 190.7 1251.9 190.7 1265.95 176.65 1279.85 162.75 1280 143.1 1280.2 156 1289.35 165.15 1298.75 174.55 1312 174.55 1325.25 174.55 1334.6 165.15 1343.85 155.95 1344 143 1344.15 162.6 1358.05 176.5 1372.1 190.55 1392 190.55 1411.9 190.55 1425.95 176.5 1439.85 162.6 1440 143 1440.15 155.95 1449.35 165.15 1458.75 174.55 1472 174.55 1485.25 174.55 1494.6 165.15 1503.85 155.95 1504 143 1504.15 162.6 1518.05 176.5 1532.1 190.55 1552 190.55 1571.9 190.55 1585.95 176.5 1599.85 162.6 1600 143 1600.15 155.95 1609.35 165.15 1618.75 174.55 1632 174.55 1645.25 174.55 1654.6 165.15 1663.85 155.95 1664 143 1664.15 162.6 1678.05 176.5 1692.1 190.55 1712 190.55 1731.9 190.55 1745.95 176.5 1759.85 162.6 1760 143 1760.15 155.95 1769.35 165.15 1778.75 174.55 1792 174.55 1805.25 174.55 1814.6 165.15 1823.85 155.95 1824 143 1824.15 162.6 1838.05 176.5 1852.1 190.55 1872 190.55 1891.9 190.55 1905.95 176.5 1919.85 162.6 1920 143 1920.35 155.6 1929.35 164.6 1938.75 174 1952 174 1965.25 174 1974.6 164.6 1983.65 155.6 1984 143 1984 162.9 1998.05 176.95 2012.1 191 2032 191 2051.9 191 2065.95 176.95 2080 162.9 2080 143L2080 -50Z"/><animate attributeName="display" repeatCount="indefinite" dur="8.333s" keyTimes="0;.56;.565;1" values="none;inline;none;none"/></g><g display="none" id="Layer5_0_FILL"><path fill="url(#Gradient_13)" stroke="none" d="M2080 -50L0 -50 0 143Q.15 155.95 9.35 165.15 18.75 174.55 32 174.55 45.25 174.55 54.6 165.15 63.85 155.95 64 143 64.15 162.6 78.05 176.5 92.1 190.55 112 190.55 131.9 190.55 145.95 176.5 159.85 162.6 160 143 160.15 155.95 169.35 165.15 178.75 174.55 192 174.55 205.25 174.55 214.6 165.15 223.85 155.95 224 143 224.15 162.6 238.05 176.5 252.1 190.55 272 190.55 291.9 190.55 305.95 176.5 319.85 162.6 320 143 320.15 155.95 329.35 165.15 338.75 174.55 352 174.55 365.25 174.55 374.6 165.15 383.85 155.95 384 143 384.15 162.6 398.05 176.5 412.1 190.55 432 190.55 451.9 190.55 465.95 176.5 479.85 162.6 480 143 480.15 155.95 489.35 165.15 498.75 174.55 512 174.55 525.25 174.55 534.6 165.15 543.85 155.95 544 143 544.15 162.6 558.05 176.5 572.1 190.55 592 190.55 611.9 190.55 625.95 176.5 639.8 162.65 640 143.15 640.15 156.1 649.35 165.3 658.75 174.7 672 174.7 685.25 174.7 694.6 165.3 703.85 156.1 704 143.15 704.15 162.75 718.05 176.65 732.1 190.7 752 190.7 771.9 190.7 785.95 176.65 799.85 162.75 800 143.15 800.15 156.1 809.35 165.3 818.75 174.7 832 174.7 845.25 174.7 854.6 165.3 863.85 156.1 864 143.15 864.15 162.75 878.05 176.65 892.1 190.7 912 190.7 931.9 190.7 945.95 176.65 959.85 162.75 960 143.15 960.15 156.1 969.35 165.3 978.75 174.7 992 174.7 1005.25 174.7 1014.6 165.3 1023.85 156.1 1024 143.15 1024.15 162.75 1038.05 176.65 1052.1 190.7 1072 190.7 1091.9 190.7 1105.95 176.65 1119.85 162.75 1120 143.15 1120.15 156.1 1129.35 165.3 1138.75 174.7 1152 174.7 1165.25 174.7 1174.6 165.3 1183.85 156.1 1184 143.15 1184.15 162.75 1198.05 176.65 1212.1 190.7 1232 190.7 1251.9 190.7 1265.95 176.65 1279.85 162.75 1280 143.1 1280.2 156 1289.35 165.15 1298.75 174.55 1312 174.55 1325.25 174.55 1334.6 165.15 1343.85 155.95 1344 143 1344.15 162.6 1358.05 176.5 1372.1 190.55 1392 190.55 1411.9 190.55 1425.95 176.5 1439.85 162.6 1440 143 1440.15 155.95 1449.35 165.15 1458.75 174.55 1472 174.55 1485.25 174.55 1494.6 165.15 1503.85 155.95 1504 143 1504.15 162.6 1518.05 176.5 1532.1 190.55 1552 190.55 1571.9 190.55 1585.95 176.5 1599.85 162.6 1600 143 1600.15 155.95 1609.35 165.15 1618.75 174.55 1632 174.55 1645.25 174.55 1654.6 165.15 1663.85 155.95 1664 143 1664.15 162.6 1678.05 176.5 1692.1 190.55 1712 190.55 1731.9 190.55 1745.95 176.5 1759.85 162.6 1760 143 1760.15 155.95 1769.35 165.15 1778.75 174.55 1792 174.55 1805.25 174.55 1814.6 165.15 1823.85 155.95 1824 143 1824.15 162.6 1838.05 176.5 1852.1 190.55 1872 190.55 1891.9 190.55 1905.95 176.5 1919.85 162.6 1920 143 1920.35 155.6 1929.35 164.6 1938.75 174 1952 174 1965.25 174 1974.6 164.6 1983.65 155.6 1984 143 1984 162.9 1998.05 176.95 2012.1 191 2032 191 2051.9 191 2065.95 176.95 2080 162.9 2080 143L2080 -50Z"/><animate attributeName="display" repeatCount="indefinite" dur="8.333s" keyTimes="0;.555;.56;1" values="none;inline;none;none"/></g><g display="none" id="Layer4_0_FILL"><path fill="url(#Gradient_14)" stroke="none" d="M2080 -50L0 -50 0 143Q.15 155.95 9.35 165.15 18.75 174.55 32 174.55 45.25 174.55 54.6 165.15 63.85 155.95 64 143 64.15 162.6 78.05 176.5 92.1 190.55 112 190.55 131.9 190.55 145.95 176.5 159.85 162.6 160 143 160.15 155.95 169.35 165.15 178.75 174.55 192 174.55 205.25 174.55 214.6 165.15 223.85 155.95 224 143 224.15 162.6 238.05 176.5 252.1 190.55 272 190.55 291.9 190.55 305.95 176.5 319.85 162.6 320 143 320.15 155.95 329.35 165.15 338.75 174.55 352 174.55 365.25 174.55 374.6 165.15 383.85 155.95 384 143 384.15 162.6 398.05 176.5 412.1 190.55 432 190.55 451.9 190.55 465.95 176.5 479.85 162.6 480 143 480.15 155.95 489.35 165.15 498.75 174.55 512 174.55 525.25 174.55 534.6 165.15 543.85 155.95 544 143 544.15 162.6 558.05 176.5 572.1 190.55 592 190.55 611.9 190.55 625.95 176.5 639.8 162.65 640 143.15 640.15 156.1 649.35 165.3 658.75 174.7 672 174.7 685.25 174.7 694.6 165.3 703.85 156.1 704 143.15 704.15 162.75 718.05 176.65 732.1 190.7 752 190.7 771.9 190.7 785.95 176.65 799.85 162.75 800 143.15 800.15 156.1 809.35 165.3 818.75 174.7 832 174.7 845.25 174.7 854.6 165.3 863.85 156.1 864 143.15 864.15 162.75 878.05 176.65 892.1 190.7 912 190.7 931.9 190.7 945.95 176.65 959.85 162.75 960 143.15 960.15 156.1 969.35 165.3 978.75 174.7 992 174.7 1005.25 174.7 1014.6 165.3 1023.85 156.1 1024 143.15 1024.15 162.75 1038.05 176.65 1052.1 190.7 1072 190.7 1091.9 190.7 1105.95 176.65 1119.85 162.75 1120 143.15 1120.15 156.1 1129.35 165.3 1138.75 174.7 1152 174.7 1165.25 174.7 1174.6 165.3 1183.85 156.1 1184 143.15 1184.15 162.75 1198.05 176.65 1212.1 190.7 1232 190.7 1251.9 190.7 1265.95 176.65 1279.85 162.75 1280 143.1 1280.2 156 1289.35 165.15 1298.75 174.55 1312 174.55 1325.25 174.55 1334.6 165.15 1343.85 155.95 1344 143 1344.15 162.6 1358.05 176.5 1372.1 190.55 1392 190.55 1411.9 190.55 1425.95 176.5 1439.85 162.6 1440 143 1440.15 155.95 1449.35 165.15 1458.75 174.55 1472 174.55 1485.25 174.55 1494.6 165.15 1503.85 155.95 1504 143 1504.15 162.6 1518.05 176.5 1532.1 190.55 1552 190.55 1571.9 190.55 1585.95 176.5 1599.85 162.6 1600 143 1600.15 155.95 1609.35 165.15 1618.75 174.55 1632 174.55 1645.25 174.55 1654.6 165.15 1663.85 155.95 1664 143 1664.15 162.6 1678.05 176.5 1692.1 190.55 1712 190.55 1731.9 190.55 1745.95 176.5 1759.85 162.6 1760 143 1760.15 155.95 1769.35 165.15 1778.75 174.55 1792 174.55 1805.25 174.55 1814.6 165.15 1823.85 155.95 1824 143 1824.15 162.6 1838.05 176.5 1852.1 190.55 1872 190.55 1891.9 190.55 1905.95 176.5 1919.85 162.6 1920 143 1920.35 155.6 1929.35 164.6 1938.75 174 1952 174 1965.25 174 1974.6 164.6 1983.65 155.6 1984 143 1984 162.9 1998.05 176.95 2012.1 191 2032 191 2051.9 191 2065.95 176.95 2080 162.9 2080 143L2080 -50Z"/><animate attributeName="display" repeatCount="indefinite" dur="8.333s" keyTimes="0;.55;.555;1" values="none;inline;none;none"/></g><g display="none" id="Layer2_0_FILL"><path fill="url(#Gradient_15)" stroke="none" d="M1792 174.55Q1805.25 174.55 1814.6 165.15 1823.85 155.95 1824 143 1824.15 162.6 1838.05 176.5 1852.1 190.55 1872 190.55 1891.9 190.55 1905.95 176.5 1919.85 162.6 1920 143 1920.35 155.6 1929.35 164.6 1938.75 174 1952 174 1965.25 174 1974.6 164.6 1983.65 155.6 1984 143 1984 162.9 1998.05 176.95 2012.1 191 2032 191 2051.9 191 2065.95 176.95 2080 162.9 2080 143L2080 -50 0 -50 0 143Q.15 155.95 9.35 165.15 18.75 174.55 32 174.55 45.25 174.55 54.6 165.15 63.85 155.95 64 143 64.15 162.6 78.05 176.5 92.1 190.55 112 190.55 131.9 190.55 145.95 176.5 159.85 162.6 160 143 160.15 155.95 169.35 165.15 178.75 174.55 192 174.55 205.25 174.55 214.6 165.15 223.85 155.95 224 143 224.15 162.6 238.05 176.5 252.1 190.55 272 190.55 291.9 190.55 305.95 176.5 319.85 162.6 320 143 320.15 155.95 329.35 165.15 338.75 174.55 352 174.55 365.25 174.55 374.6 165.15 383.85 155.95 384 143 384.15 162.6 398.05 176.5 412.1 190.55 432 190.55 451.9 190.55 465.95 176.5 479.85 162.6 480 143 480.15 155.95 489.35 165.15 498.75 174.55 512 174.55 525.25 174.55 534.6 165.15 543.85 155.95 544 143 544.15 162.6 558.05 176.5 572.1 190.55 592 190.55 611.9 190.55 625.95 176.5 639.8 162.65 640 143.15 640.15 156.1 649.35 165.3 658.75 174.7 672 174.7 685.25 174.7 694.6 165.3 703.85 156.1 704 143.15 704.15 162.75 718.05 176.65 732.1 190.7 752 190.7 771.9 190.7 785.95 176.65 799.85 162.75 800 143.15 800.15 156.1 809.35 165.3 818.75 174.7 832 174.7 845.25 174.7 854.6 165.3 863.85 156.1 864 143.15 864.15 162.75 878.05 176.65 892.1 190.7 912 190.7 931.9 190.7 945.95 176.65 959.85 162.75 960 143.15 960.15 156.1 969.35 165.3 978.75 174.7 992 174.7 1005.25 174.7 1014.6 165.3 1023.85 156.1 1024 143.15 1024.15 162.75 1038.05 176.65 1052.1 190.7 1072 190.7 1091.9 190.7 1105.95 176.65 1119.85 162.75 1120 143.15 1120.15 156.1 1129.35 165.3 1138.75 174.7 1152 174.7 1165.25 174.7 1174.6 165.3 1183.85 156.1 1184 143.15 1184.15 162.75 1198.05 176.65 1212.1 190.7 1232 190.7 1251.9 190.7 1265.95 176.65 1279.85 162.75 1280 143.1 1280.2 156 1289.35 165.15 1298.75 174.55 1312 174.55 1325.25 174.55 1334.6 165.15 1343.85 155.95 1344 143 1344.15 162.6 1358.05 176.5 1372.1 190.55 1392 190.55 1411.9 190.55 1425.95 176.5 1439.85 162.6 1440 143 1440.15 155.95 1449.35 165.15 1458.75 174.55 1472 174.55 1485.25 174.55 1494.6 165.15 1503.85 155.95 1504 143 1504.15 162.6 1518.05 176.5 1532.1 190.55 1552 190.55 1571.9 190.55 1585.95 176.5 1599.85 162.6 1600 143 1600.15 155.95 1609.35 165.15 1618.75 174.55 1632 174.55 1645.25 174.55 1654.6 165.15 1663.85 155.95 1664 143 1664.15 162.6 1678.05 176.5 1692.1 190.55 1712 190.55 1731.9 190.55 1745.95 176.5 1759.85 162.6 1760 143 1760.15 155.95 1769.35 165.15 1778.75 174.55 1792 174.55Z"/><animate attributeName="display" repeatCount="indefinite" dur="8.333s" keyTimes="0;.52;.55;1" values="none;inline;none;none"/></g><g id="Layer1_0_FILL"><path fill="#FFF" stroke="none" d="M1792 174.55Q1805.25 174.55 1814.6 165.15 1823.85 155.95 1824 143 1824.15 162.6 1838.05 176.5 1852.1 190.55 1872 190.55 1891.9 190.55 1905.95 176.5 1919.85 162.6 1920 143 1920.35 155.6 1929.35 164.6 1938.75 174 1952 174 1965.25 174 1974.6 164.6 1983.65 155.6 1984 143 1984 162.9 1998.05 176.95 2012.1 191 2032 191 2051.9 191 2065.95 176.95 2080 162.9 2080 143L2080 -50 0 -50 0 143Q.15 155.95 9.35 165.15 18.75 174.55 32 174.55 45.25 174.55 54.6 165.15 63.85 155.95 64 143 64.15 162.6 78.05 176.5 92.1 190.55 112 190.55 131.9 190.55 145.95 176.5 159.85 162.6 160 143 160.15 155.95 169.35 165.15 178.75 174.55 192 174.55 205.25 174.55 214.6 165.15 223.85 155.95 224 143 224.15 162.6 238.05 176.5 252.1 190.55 272 190.55 291.9 190.55 305.95 176.5 319.85 162.6 320 143 320.15 155.95 329.35 165.15 338.75 174.55 352 174.55 365.25 174.55 374.6 165.15 383.85 155.95 384 143 384.15 162.6 398.05 176.5 412.1 190.55 432 190.55 451.9 190.55 465.95 176.5 479.85 162.6 480 143 480.15 155.95 489.35 165.15 498.75 174.55 512 174.55 525.25 174.55 534.6 165.15 543.85 155.95 544 143 544.15 162.6 558.05 176.5 572.1 190.55 592 190.55 611.9 190.55 625.95 176.5 639.8 162.65 640 143.15 640.15 156.1 649.35 165.3 658.75 174.7 672 174.7 685.25 174.7 694.6 165.3 703.85 156.1 704 143.15 704.15 162.75 718.05 176.65 732.1 190.7 752 190.7 771.9 190.7 785.95 176.65 799.85 162.75 800 143.15 800.15 156.1 809.35 165.3 818.75 174.7 832 174.7 845.25 174.7 854.6 165.3 863.85 156.1 864 143.15 864.15 162.75 878.05 176.65 892.1 190.7 912 190.7 931.9 190.7 945.95 176.65 959.85 162.75 960 143.15 960.15 156.1 969.35 165.3 978.75 174.7 992 174.7 1005.25 174.7 1014.6 165.3 1023.85 156.1 1024 143.15 1024.15 162.75 1038.05 176.65 1052.1 190.7 1072 190.7 1091.9 190.7 1105.95 176.65 1119.85 162.75 1120 143.15 1120.15 156.1 1129.35 165.3 1138.75 174.7 1152 174.7 1165.25 174.7 1174.6 165.3 1183.85 156.1 1184 143.15 1184.15 162.75 1198.05 176.65 1212.1 190.7 1232 190.7 1251.9 190.7 1265.95 176.65 1279.85 162.75 1280 143.1 1280.2 156 1289.35 165.15 1298.75 174.55 1312 174.55 1325.25 174.55 1334.6 165.15 1343.85 155.95 1344 143 1344.15 162.6 1358.05 176.5 1372.1 190.55 1392 190.55 1411.9 190.55 1425.95 176.5 1439.85 162.6 1440 143 1440.15 155.95 1449.35 165.15 1458.75 174.55 1472 174.55 1485.25 174.55 1494.6 165.15 1503.85 155.95 1504 143 1504.15 162.6 1518.05 176.5 1532.1 190.55 1552 190.55 1571.9 190.55 1585.95 176.5 1599.85 162.6 1600 143 1600.15 155.95 1609.35 165.15 1618.75 174.55 1632 174.55 1645.25 174.55 1654.6 165.15 1663.85 155.95 1664 143 1664.15 162.6 1678.05 176.5 1692.1 190.55 1712 190.55 1731.9 190.55 1745.95 176.5 1759.85 162.6 1760 143 1760.15 155.95 1769.35 165.15 1778.75 174.55 1792 174.55Z"/><animate attributeName="display" repeatCount="indefinite" dur="8.333s" keyTimes="0;.52;1" values="inline;none;none"/></g></g><g mask="url(#mask_)"><use xlink:href="#Rain-Sheetd200" transform="translate(-285.2 -192.4)"/><use xlink:href="#Rain-Sheetd200" transform="translate(-200.6 .3)"/><use xlink:href="#Rain-Sheetd200" transform="translate(-218.6 199.3)"/><use xlink:href="#Rain-Sheetd200" transform="translate(-106.25 361.95)"/><use xlink:href="#Rain-Sheetd200" transform="translate(-171.75 534)"/><use xlink:href="#Rain-Sheetd200" transform="translate(-59.4 696.65)"/><use xlink:href="#Rain-Sheetd200" transform="translate(-164.75 860)"/><use xlink:href="#Rain-Sheetd200" transform="translate(-52.4 1022.65)"/><use xlink:href="#Rain-Sheetd200" transform="translate(-461.85 -937.95)"/><use xlink:href="#Rain-Sheetd200" transform="translate(-377.25 -745.25)"/><use xlink:href="#Rain-Sheetd200" transform="translate(-395.25 -546.25)"/><use xlink:href="#Rain-Sheetd200" transform="translate(-282.9 -383.6)"/></g><mask id="mask_"><g filter="url(#filter)"><use xlink:href="#Sky"/></g></mask></g></svg>